<svg width="1300" height="744" viewBox="0 0 1300 744" fill="none" xmlns="http://www.w3.org/2000/svg">
<g opacity="0.342388">
<path d="M369.039 111.112C369.039 109.995 369.945 109.088 371.063 109.088C372.181 109.088 373.088 109.995 373.088 111.112C373.088 112.23 372.181 113.137 371.063 113.137C369.945 113.137 369.039 112.23 369.039 111.112Z" fill="#3C79CA"/>
</g>
<g opacity="0.999727">
<path d="M476.225 346.612C476.225 345.287 477.299 344.213 478.624 344.213C479.95 344.213 481.024 345.287 481.024 346.612C481.024 347.938 479.95 349.012 478.624 349.012C477.299 349.012 476.225 347.938 476.225 346.612Z" fill="#3C79CA"/>
</g>
<g opacity="0.357362">
<path d="M670.33 457.563C670.33 456.44 671.24 455.53 672.363 455.53C673.486 455.53 674.396 456.44 674.396 457.563C674.396 458.685 673.486 459.595 672.363 459.595C671.24 459.595 670.33 458.685 670.33 457.563Z" fill="#3C79CA"/>
</g>
<g opacity="0.977658">
<path d="M888.062 610.075C888.062 608.757 889.131 607.688 890.45 607.688C891.768 607.688 892.837 608.757 892.837 610.075C892.837 611.393 891.768 612.462 890.45 612.462C889.131 612.462 888.062 611.393 888.062 610.075Z" fill="#3C79CA"/>
</g>
<g opacity="0.49613">
<path d="M281.014 60.325C281.014 59.1586 281.959 58.213 283.126 58.213C284.292 58.213 285.238 59.1586 285.238 60.325C285.238 61.4915 284.292 62.4371 283.126 62.4371C281.959 62.4371 281.014 61.4915 281.014 60.325Z" fill="#3C79CA"/>
</g>
<g opacity="0.974798">
<path d="M1111.09 524.225C1111.09 522.907 1112.16 521.839 1113.48 521.839C1114.79 521.839 1115.86 522.907 1115.86 524.225C1115.86 525.542 1114.79 526.611 1113.48 526.611C1112.16 526.611 1111.09 525.542 1111.09 524.225Z" fill="#3C79CA"/>
</g>
<g opacity="0.717681">
<path d="M1196.01 720.862C1196.01 719.626 1197.01 718.624 1198.25 718.624C1199.49 718.624 1200.49 719.626 1200.49 720.862C1200.49 722.099 1199.49 723.101 1198.25 723.101C1197.01 723.101 1196.01 722.099 1196.01 720.862Z" fill="#3C79CA"/>
</g>
<g opacity="0.491806">
<path d="M496.291 408.3C496.291 407.135 497.236 406.19 498.401 406.19C499.566 406.19 500.51 407.135 500.51 408.3C500.51 409.465 499.566 410.41 498.401 410.41C497.236 410.41 496.291 409.465 496.291 408.3Z" fill="#3C79CA"/>
</g>
<g opacity="0.50403">
<path d="M242.383 485.138C242.383 483.969 243.33 483.021 244.499 483.021C245.668 483.021 246.616 483.969 246.616 485.138C246.616 486.307 245.668 487.254 244.499 487.254C243.33 487.254 242.383 486.307 242.383 485.138Z" fill="#3C79CA"/>
</g>
<g opacity="0.554056">
<path d="M504.779 65.1C504.779 63.9153 505.74 62.9548 506.924 62.9548C508.109 62.9548 509.07 63.9153 509.07 65.1C509.07 66.2848 508.109 67.2452 506.924 67.2452C505.74 67.2452 504.779 66.2848 504.779 65.1Z" fill="#3C79CA"/>
</g>
<g opacity="0.985087">
<path d="M1252.96 660.45C1252.96 659.129 1254.03 658.059 1255.35 658.059C1256.67 658.059 1257.74 659.129 1257.74 660.45C1257.74 661.771 1256.67 662.842 1255.35 662.842C1254.03 662.842 1252.96 661.771 1252.96 660.45Z" fill="#3C79CA"/>
</g>
<g opacity="0.548539">
<path d="M463.283 394.825C463.283 393.642 464.242 392.683 465.425 392.683C466.608 392.683 467.567 393.642 467.567 394.825C467.567 396.008 466.608 396.967 465.425 396.967C464.242 396.967 463.283 396.008 463.283 394.825Z" fill="#3C79CA"/>
</g>
<g opacity="0.739896">
<path d="M1259.44 419.362C1259.44 418.119 1260.44 417.111 1261.69 417.111C1262.93 417.111 1263.94 418.119 1263.94 419.362C1263.94 420.606 1262.93 421.614 1261.69 421.614C1260.44 421.614 1259.44 420.606 1259.44 419.362Z" fill="#3C79CA"/>
</g>
<g opacity="0.897132">
<path d="M78.4961 65.675C78.4961 64.382 79.5443 63.3338 80.8373 63.3338C82.1303 63.3338 83.1785 64.382 83.1785 65.675C83.1785 66.968 82.1303 68.0162 80.8373 68.0162C79.5443 68.0162 78.4961 66.968 78.4961 65.675Z" fill="#3C79CA"/>
</g>
<g opacity="0.99537">
<path d="M1234.63 413.938C1234.63 412.613 1235.7 411.54 1237.02 411.54C1238.35 411.54 1239.42 412.613 1239.42 413.938C1239.42 415.262 1238.35 416.335 1237.02 416.335C1235.7 416.335 1234.63 415.262 1234.63 413.938Z" fill="#3C79CA"/>
</g>
<g opacity="0.800791">
<path d="M1198.89 412.675C1198.89 411.412 1199.91 410.389 1201.17 410.389C1202.44 410.389 1203.46 411.412 1203.46 412.675C1203.46 413.938 1202.44 414.961 1201.17 414.961C1199.91 414.961 1198.89 413.938 1198.89 412.675Z" fill="#3C79CA"/>
</g>
<g opacity="0.505189">
<path d="M747.633 694.488C747.633 693.318 748.581 692.37 749.75 692.37C750.919 692.37 751.867 693.318 751.867 694.488C751.867 695.657 750.919 696.605 749.75 696.605C748.581 696.605 747.633 695.657 747.633 694.488Z" fill="#3C79CA"/>
</g>
<g opacity="0.64831">
<path d="M1056.88 85.7125C1056.88 84.498 1057.86 83.5135 1059.07 83.5135C1060.29 83.5135 1061.27 84.498 1061.27 85.7125C1061.27 86.927 1060.29 87.9116 1059.07 87.9116C1057.86 87.9116 1056.88 86.927 1056.88 85.7125Z" fill="#3C79CA"/>
</g>
<g opacity="0.322617">
<path d="M335.812 442.225C335.812 441.113 336.714 440.212 337.825 440.212C338.937 440.212 339.838 441.113 339.838 442.225C339.838 443.337 338.937 444.238 337.825 444.238C336.714 444.238 335.812 443.337 335.812 442.225Z" fill="#3C79CA"/>
</g>
<g opacity="0.604708">
<path d="M797.938 14.05C797.938 12.8492 798.911 11.8759 800.112 11.8759C801.312 11.8759 802.286 12.8492 802.286 14.05C802.286 15.2507 801.312 16.2241 800.112 16.2241C798.911 16.2241 797.938 15.2507 797.938 14.05Z" fill="#3C79CA"/>
</g>
<g opacity="0.928252">
<path d="M1083.68 527.85C1083.68 526.547 1084.73 525.491 1086.04 525.491C1087.34 525.491 1088.4 526.547 1088.4 527.85C1088.4 529.153 1087.34 530.209 1086.04 530.209C1084.73 530.209 1083.68 529.153 1083.68 527.85Z" fill="#3C79CA"/>
</g>
<g opacity="0.731247">
<path d="M953.967 477.763C953.967 476.522 954.973 475.516 956.213 475.516C957.454 475.516 958.46 476.522 958.46 477.763C958.46 479.003 957.454 480.009 956.213 480.009C954.973 480.009 953.967 479.003 953.967 477.763Z" fill="#3C79CA"/>
</g>
<g opacity="0.551577">
<path d="M1001.54 280.213C1001.54 279.029 1002.5 278.069 1003.69 278.069C1004.87 278.069 1005.83 279.029 1005.83 280.213C1005.83 281.397 1004.87 282.356 1003.69 282.356C1002.5 282.356 1001.54 281.397 1001.54 280.213Z" fill="#3C79CA"/>
</g>
<g opacity="0.391183">
<path d="M437.986 377.95C437.986 376.817 438.905 375.898 440.038 375.898C441.172 375.898 442.091 376.817 442.091 377.95C442.091 379.083 441.172 380.002 440.038 380.002C438.905 380.002 437.986 379.083 437.986 377.95Z" fill="#3C79CA"/>
</g>
<g opacity="0.414196">
<path d="M1158.22 332C1158.22 330.859 1159.15 329.935 1160.29 329.935C1161.43 329.935 1162.35 330.859 1162.35 332C1162.35 333.141 1161.43 334.065 1160.29 334.065C1159.15 334.065 1158.22 333.141 1158.22 332Z" fill="#3C79CA"/>
</g>
<g opacity="0.91607">
<path d="M762.223 345.75C762.223 344.451 763.276 343.398 764.575 343.398C765.874 343.398 766.927 344.451 766.927 345.75C766.927 347.049 765.874 348.102 764.575 348.102C763.276 348.102 762.223 347.049 762.223 345.75Z" fill="#3C79CA"/>
</g>
<g opacity="0.416199">
<path d="M1238.47 64.15C1238.47 63.0088 1239.4 62.0836 1240.54 62.0836C1241.68 62.0836 1242.6 63.0088 1242.6 64.15C1242.6 65.2913 1241.68 66.2164 1240.54 66.2164C1239.4 66.2164 1238.47 65.2913 1238.47 64.15Z" fill="#3C79CA"/>
</g>
<g opacity="0.902183">
<path d="M1044.63 710.138C1044.63 708.843 1045.68 707.793 1046.97 707.793C1048.27 707.793 1049.32 708.843 1049.32 710.138C1049.32 711.432 1048.27 712.482 1046.97 712.482C1045.68 712.482 1044.63 711.432 1044.63 710.138Z" fill="#3C79CA"/>
</g>
<g opacity="0.938827">
<path d="M146.348 127.125C146.348 125.819 147.407 124.76 148.713 124.76C150.019 124.76 151.078 125.819 151.078 127.125C151.078 128.431 150.019 129.49 148.713 129.49C147.407 129.49 146.348 128.431 146.348 127.125Z" fill="#3C79CA"/>
</g>
<g opacity="0.491214">
<path d="M68.7402 491.675C68.7402 490.51 69.6846 489.566 70.8495 489.566C72.0144 489.566 72.9588 490.51 72.9588 491.675C72.9588 492.84 72.0144 493.784 70.8495 493.784C69.6846 493.784 68.7402 492.84 68.7402 491.675Z" fill="#3C79CA"/>
</g>
<g opacity="0.391161">
<path d="M188.572 444.513C188.572 443.379 189.491 442.46 190.624 442.46C191.758 442.46 192.676 443.379 192.676 444.513C192.676 445.646 191.758 446.565 190.624 446.565C189.491 446.565 188.572 445.646 188.572 444.513Z" fill="#3C79CA"/>
</g>
<g opacity="0.55542">
<path d="M710.203 557.45C710.203 556.265 711.164 555.304 712.349 555.304C713.534 555.304 714.495 556.265 714.495 557.45C714.495 558.635 713.534 559.596 712.349 559.596C711.164 559.596 710.203 558.635 710.203 557.45Z" fill="#3C79CA"/>
</g>
<g opacity="0.750075">
<path d="M345.105 156.35C345.105 155.103 346.116 154.093 347.363 154.093C348.609 154.093 349.62 155.103 349.62 156.35C349.62 157.597 348.609 158.607 347.363 158.607C346.116 158.607 345.105 157.597 345.105 156.35Z" fill="#3C79CA"/>
</g>
<g opacity="0.739584">
<path d="M184.611 445.213C184.611 443.969 185.619 442.961 186.863 442.961C188.106 442.961 189.114 443.969 189.114 445.213C189.114 446.456 188.106 447.464 186.863 447.464C185.619 447.464 184.611 446.456 184.611 445.213Z" fill="#3C79CA"/>
</g>
<g opacity="0.888016">
<path d="M283.889 352.837C283.889 351.547 284.935 350.501 286.225 350.501C287.515 350.501 288.561 351.547 288.561 352.837C288.561 354.128 287.515 355.173 286.225 355.173C284.935 355.173 283.889 354.128 283.889 352.837Z" fill="#3C79CA"/>
</g>
<g opacity="0.731159">
<path d="M806.678 122.163C806.678 120.922 807.683 119.916 808.924 119.916C810.165 119.916 811.17 120.922 811.17 122.163C811.17 123.403 810.165 124.409 808.924 124.409C807.683 124.409 806.678 123.403 806.678 122.163Z" fill="#3C79CA"/>
</g>
<g opacity="0.761765">
<path d="M643.123 264.487C643.123 263.237 644.137 262.224 645.387 262.224C646.637 262.224 647.651 263.237 647.651 264.487C647.651 265.738 646.637 266.751 645.387 266.751C644.137 266.751 643.123 265.738 643.123 264.487Z" fill="#3C79CA"/>
</g>
<g opacity="0.321188">
<path d="M578.389 664.475C578.389 663.364 579.29 662.463 580.401 662.463C581.512 662.463 582.413 663.364 582.413 664.475C582.413 665.586 581.512 666.487 580.401 666.487C579.29 666.487 578.389 665.586 578.389 664.475Z" fill="#3C79CA"/>
</g>
<g opacity="0.99251">
<path d="M1191.62 713.875C1191.62 712.552 1192.69 711.479 1194.01 711.479C1195.34 711.479 1196.41 712.552 1196.41 713.875C1196.41 715.198 1195.34 716.271 1194.01 716.271C1192.69 716.271 1191.62 715.198 1191.62 713.875Z" fill="#3C79CA"/>
</g>
<g opacity="0.755502">
<path d="M888.002 423.6C888.002 422.352 889.014 421.34 890.262 421.34C891.511 421.34 892.523 422.352 892.523 423.6C892.523 424.848 891.511 425.86 890.262 425.86C889.014 425.86 888.002 424.848 888.002 423.6Z" fill="#3C79CA"/>
</g>
<g opacity="0.499108">
<path d="M1012.21 90.5125C1012.21 89.3451 1013.16 88.3987 1014.32 88.3987C1015.49 88.3987 1016.44 89.3451 1016.44 90.5125C1016.44 91.6799 1015.49 92.6263 1014.32 92.6263C1013.16 92.6263 1012.21 91.6799 1012.21 90.5125Z" fill="#3C79CA"/>
</g>
<g opacity="0.937182">
<path d="M461.424 369.662C461.424 368.357 462.482 367.298 463.788 367.298C465.094 367.298 466.152 368.357 466.152 369.662C466.152 370.968 465.094 372.027 463.788 372.027C462.482 372.027 461.424 370.968 461.424 369.662Z" fill="#3C79CA"/>
</g>
<g opacity="0.423982">
<path d="M533.691 515.363C533.691 514.219 534.619 513.292 535.762 513.292C536.906 513.292 537.833 514.219 537.833 515.363C537.833 516.506 536.906 517.433 535.762 517.433C534.619 517.433 533.691 516.506 533.691 515.363Z" fill="#3C79CA"/>
</g>
<g opacity="0.878484">
<path d="M887.082 704.075C887.082 702.788 888.125 701.744 889.413 701.744C890.7 701.744 891.743 702.788 891.743 704.075C891.743 705.362 890.7 706.406 889.413 706.406C888.125 706.406 887.082 705.362 887.082 704.075Z" fill="#3C79CA"/>
</g>
<g opacity="0.776972">
<path d="M870.678 79.2001C870.678 77.9449 871.695 76.9275 872.95 76.9275C874.205 76.9275 875.223 77.9449 875.223 79.2001C875.223 80.4552 874.205 81.4726 872.95 81.4726C871.695 81.4726 870.678 80.4552 870.678 79.2001Z" fill="#3C79CA"/>
</g>
<g opacity="0.767654">
<path d="M622.32 368.288C622.32 367.035 623.335 366.02 624.588 366.02C625.84 366.02 626.855 367.035 626.855 368.288C626.855 369.54 625.84 370.555 624.588 370.555C623.335 370.555 622.32 369.54 622.32 368.288Z" fill="#3C79CA"/>
</g>
<g opacity="0.33592">
<path d="M264.254 661.875C264.254 660.759 265.159 659.854 266.274 659.854C267.39 659.854 268.295 660.759 268.295 661.875C268.295 662.991 267.39 663.896 266.274 663.896C265.159 663.896 264.254 662.991 264.254 661.875Z" fill="#3C79CA"/>
</g>
<g opacity="0.947928">
<path d="M295.492 433.1C295.492 431.791 296.553 430.73 297.862 430.73C299.171 430.73 300.233 431.791 300.233 433.1C300.233 434.409 299.171 435.47 297.862 435.47C296.553 435.47 295.492 434.409 295.492 433.1Z" fill="#3C79CA"/>
</g>
<g opacity="0.525595">
<path d="M113.959 358.975C113.959 357.799 114.912 356.846 116.088 356.846C117.264 356.846 118.217 357.799 118.217 358.975C118.217 360.151 117.264 361.104 116.088 361.104C114.912 361.104 113.959 360.151 113.959 358.975Z" fill="#3C79CA"/>
</g>
<g opacity="0.561139">
<path d="M704.625 599.225C704.625 598.038 705.587 597.076 706.774 597.076C707.961 597.076 708.923 598.038 708.923 599.225C708.923 600.412 707.961 601.374 706.774 601.374C705.587 601.374 704.625 600.412 704.625 599.225Z" fill="#3C79CA"/>
</g>
<g opacity="0.30175">
<path d="M526.637 355.6C526.637 354.495 527.533 353.599 528.638 353.599C529.743 353.599 530.639 354.495 530.639 355.6C530.639 356.705 529.743 357.601 528.638 357.601C527.533 357.601 526.637 356.705 526.637 355.6Z" fill="#3C79CA"/>
</g>
<g opacity="0.999163">
<path d="M1189.74 478.813C1189.74 477.487 1190.81 476.413 1192.14 476.413C1193.46 476.413 1194.54 477.487 1194.54 478.813C1194.54 480.138 1193.46 481.212 1192.14 481.212C1190.81 481.212 1189.74 480.138 1189.74 478.813Z" fill="#3C79CA"/>
</g>
<g opacity="0.596156">
<path d="M530.068 460.2C530.068 459.002 531.04 458.031 532.238 458.031C533.436 458.031 534.407 459.002 534.407 460.2C534.407 461.398 533.436 462.369 532.238 462.369C531.04 462.369 530.068 461.398 530.068 460.2Z" fill="#3C79CA"/>
</g>
<g opacity="0.401418">
<path d="M1126.47 454.037C1126.47 452.901 1127.39 451.979 1128.52 451.979C1129.66 451.979 1130.58 452.901 1130.58 454.037C1130.58 455.174 1129.66 456.095 1128.52 456.095C1127.39 456.095 1126.47 455.174 1126.47 454.037Z" fill="#3C79CA"/>
</g>
<g opacity="0.300286">
<path d="M22.6758 87.6998C22.6758 86.5953 23.5712 85.6998 24.6758 85.6998C25.7804 85.6998 26.6758 86.5953 26.6758 87.6998C26.6758 88.8044 25.7804 89.6998 24.6758 89.6998C23.5712 89.6998 22.6758 88.8044 22.6758 87.6998Z" fill="#3C79CA"/>
</g>
<g opacity="0.805444">
<path d="M27.8496 712.488C27.8496 711.223 28.8743 710.199 30.1384 710.199C31.4025 710.199 32.4272 711.223 32.4272 712.488C32.4272 713.752 31.4025 714.776 30.1384 714.776C28.8743 714.776 27.8496 713.752 27.8496 712.488Z" fill="#3C79CA"/>
</g>
<g opacity="0.34302">
<path d="M1029.44 518.638C1029.44 517.519 1030.34 516.613 1031.46 516.613C1032.58 516.613 1033.49 517.519 1033.49 518.638C1033.49 519.756 1032.58 520.662 1031.46 520.662C1030.34 520.662 1029.44 519.756 1029.44 518.638Z" fill="#3C79CA"/>
</g>
<g opacity="0.349892">
<path d="M189.072 579.05C189.072 577.93 189.98 577.021 191.101 577.021C192.221 577.021 193.129 577.93 193.129 579.05C193.129 580.17 192.221 581.078 191.101 581.078C189.98 581.078 189.072 580.17 189.072 579.05Z" fill="#3C79CA"/>
</g>
<g opacity="0.388015">
<path d="M257.574 191.513C257.574 190.38 258.492 189.462 259.625 189.462C260.757 189.462 261.675 190.38 261.675 191.513C261.675 192.645 260.757 193.563 259.625 193.563C258.492 193.563 257.574 192.645 257.574 191.513Z" fill="#3C79CA"/>
</g>
<g opacity="0.423744">
<path d="M973.83 328.163C973.83 327.019 974.757 326.092 975.901 326.092C977.044 326.092 977.972 327.019 977.972 328.163C977.972 329.306 977.044 330.233 975.901 330.233C974.757 330.233 973.83 329.306 973.83 328.163Z" fill="#3C79CA"/>
</g>
<g opacity="0.371968">
<path d="M1116.28 90.0625C1116.28 88.9352 1117.2 88.0214 1118.32 88.0214C1119.45 88.0214 1120.37 88.9352 1120.37 90.0625C1120.37 91.1898 1119.45 92.1036 1118.32 92.1036C1117.2 92.1036 1116.28 91.1898 1116.28 90.0625Z" fill="#3C79CA"/>
</g>
<g opacity="0.767706">
<path d="M56.957 322.2C56.957 320.948 57.9721 319.933 59.2243 319.933C60.4765 319.933 61.4916 320.948 61.4916 322.2C61.4916 323.452 60.4765 324.467 59.2243 324.467C57.9721 324.467 56.957 323.452 56.957 322.2Z" fill="#3C79CA"/>
</g>
<g opacity="0.982031">
<path d="M1137.87 693.888C1137.87 692.568 1138.94 691.498 1140.26 691.498C1141.58 691.498 1142.65 692.568 1142.65 693.888C1142.65 695.207 1141.58 696.277 1140.26 696.277C1138.94 696.277 1137.87 695.207 1137.87 693.888Z" fill="#3C79CA"/>
</g>
<g opacity="0.453836">
<path d="M994.512 170.225C994.512 169.072 995.447 168.137 996.6 168.137C997.753 168.137 998.688 169.072 998.688 170.225C998.688 171.378 997.753 172.313 996.6 172.313C995.447 172.313 994.512 171.378 994.512 170.225Z" fill="#3C79CA"/>
</g>
<g opacity="0.560267">
<path d="M470.15 263.938C470.15 262.751 471.112 261.789 472.299 261.789C473.486 261.789 474.448 262.751 474.448 263.938C474.448 265.124 473.486 266.086 472.299 266.086C471.112 266.086 470.15 265.124 470.15 263.938Z" fill="#3C79CA"/>
</g>
<g opacity="0.970848">
<path d="M868.666 65.6625C868.666 64.3462 869.733 63.2792 871.049 63.2792C872.366 63.2792 873.433 64.3462 873.433 65.6625C873.433 66.9788 872.366 68.0459 871.049 68.0459C869.733 68.0459 868.666 66.9788 868.666 65.6625Z" fill="#3C79CA"/>
</g>
<g opacity="0.498052">
<path d="M733.461 441.412C733.461 440.245 734.407 439.299 735.574 439.299C736.741 439.299 737.687 440.245 737.687 441.412C737.687 442.58 736.741 443.526 735.574 443.526C734.407 443.526 733.461 442.58 733.461 441.412Z" fill="#3C79CA"/>
</g>
<g opacity="0.517597">
<path d="M238.275 519.5C238.275 518.327 239.226 517.376 240.4 517.376C241.573 517.376 242.524 518.327 242.524 519.5C242.524 520.673 241.573 521.624 240.4 521.624C239.226 521.624 238.275 520.673 238.275 519.5Z" fill="#3C79CA"/>
</g>
<g opacity="0.486015">
<path d="M867.105 733.813C867.105 732.649 868.048 731.706 869.212 731.706C870.375 731.706 871.318 732.649 871.318 733.813C871.318 734.976 870.375 735.919 869.212 735.919C868.048 735.919 867.105 734.976 867.105 733.813Z" fill="#3C79CA"/>
</g>
<g opacity="0.870115">
<path d="M1047.21 678.587C1047.21 677.303 1048.25 676.262 1049.54 676.262C1050.82 676.262 1051.86 677.303 1051.86 678.587C1051.86 679.872 1050.82 680.913 1049.54 680.913C1048.25 680.913 1047.21 679.872 1047.21 678.587Z" fill="#3C79CA"/>
</g>
<g opacity="0.563899">
<path d="M803.586 574.475C803.586 573.287 804.549 572.324 805.737 572.324C806.925 572.324 807.888 573.287 807.888 574.475C807.888 575.663 806.925 576.626 805.737 576.626C804.549 576.626 803.586 575.663 803.586 574.475Z" fill="#3C79CA"/>
</g>
<g opacity="0.992683">
<path d="M394.354 215.112C394.354 213.789 395.426 212.717 396.749 212.717C398.073 212.717 399.145 213.789 399.145 215.112C399.145 216.436 398.073 217.508 396.749 217.508C395.426 217.508 394.354 216.436 394.354 215.112Z" fill="#3C79CA"/>
</g>
<g opacity="0.927545">
<path d="M1196.09 538.288C1196.09 536.985 1197.15 535.929 1198.45 535.929C1199.75 535.929 1200.81 536.985 1200.81 538.288C1200.81 539.59 1199.75 540.646 1198.45 540.646C1197.15 540.646 1196.09 539.59 1196.09 538.288Z" fill="#3C79CA"/>
</g>
<g opacity="0.351823">
<path d="M1185.2 593.5C1185.2 592.379 1186.1 591.47 1187.22 591.47C1188.35 591.47 1189.25 592.379 1189.25 593.5C1189.25 594.621 1188.35 595.53 1187.22 595.53C1186.1 595.53 1185.2 594.621 1185.2 593.5Z" fill="#3C79CA"/>
</g>
<g opacity="0.441934">
<path d="M741.918 709.563C741.918 708.413 742.85 707.481 743.999 707.481C745.148 707.481 746.08 708.413 746.08 709.563C746.08 710.712 745.148 711.644 743.999 711.644C742.85 711.644 741.918 710.712 741.918 709.563Z" fill="#3C79CA"/>
</g>
<g opacity="0.608326">
<path d="M1078.49 599.838C1078.49 598.636 1079.46 597.661 1080.66 597.661C1081.86 597.661 1082.84 598.636 1082.84 599.838C1082.84 601.039 1081.86 602.014 1080.66 602.014C1079.46 602.014 1078.49 601.039 1078.49 599.838Z" fill="#3C79CA"/>
</g>
<g opacity="0.326124">
<path d="M123.859 570.863C123.859 569.75 124.761 568.848 125.874 568.848C126.987 568.848 127.889 569.75 127.889 570.863C127.889 571.975 126.987 572.877 125.874 572.877C124.761 572.877 123.859 571.975 123.859 570.863Z" fill="#3C79CA"/>
</g>
<g opacity="0.4526">
<path d="M879.738 65.475C879.738 64.3223 880.673 63.3878 881.825 63.3878C882.978 63.3878 883.913 64.3223 883.913 65.475C883.913 66.6277 882.978 67.5622 881.825 67.5622C880.673 67.5622 879.738 66.6277 879.738 65.475Z" fill="#3C79CA"/>
</g>
<g opacity="0.976172">
<path d="M1120.9 130.588C1120.9 129.27 1121.97 128.201 1123.29 128.201C1124.6 128.201 1125.67 129.27 1125.67 130.588C1125.67 131.906 1124.6 132.974 1123.29 132.974C1121.97 132.974 1120.9 131.906 1120.9 130.588Z" fill="#3C79CA"/>
</g>
<g opacity="0.994352">
<path d="M472.74 548.25C472.74 546.926 473.813 545.853 475.137 545.853C476.461 545.853 477.534 546.926 477.534 548.25C477.534 549.574 476.461 550.647 475.137 550.647C473.813 550.647 472.74 549.574 472.74 548.25Z" fill="#3C79CA"/>
</g>
<g opacity="0.744341">
<path d="M1044.98 219.075C1044.98 217.83 1045.99 216.821 1047.24 216.821C1048.48 216.821 1049.49 217.83 1049.49 219.075C1049.49 220.32 1048.48 221.329 1047.24 221.329C1045.99 221.329 1044.98 220.32 1044.98 219.075Z" fill="#3C79CA"/>
</g>
<g opacity="0.991738">
<path d="M989.08 529.213C989.08 527.89 990.152 526.817 991.475 526.817C992.798 526.817 993.871 527.89 993.871 529.213C993.871 530.535 992.798 531.608 991.475 531.608C990.152 531.608 989.08 530.535 989.08 529.213Z" fill="#3C79CA"/>
</g>
<g opacity="0.922015">
<path d="M196.645 91.2876C196.645 89.9867 197.699 88.9321 199 88.9321C200.301 88.9321 201.355 89.9867 201.355 91.2876C201.355 92.5884 200.301 93.643 199 93.643C197.699 93.643 196.645 92.5884 196.645 91.2876Z" fill="#3C79CA"/>
</g>
<g opacity="0.765157">
<path d="M174.973 532.538C174.973 531.286 175.987 530.272 177.238 530.272C178.49 530.272 179.504 531.286 179.504 532.538C179.504 533.789 178.49 534.803 177.238 534.803C175.987 534.803 174.973 533.789 174.973 532.538Z" fill="#3C79CA"/>
</g>
<g opacity="0.996478">
<path d="M56.7402 462.462C56.7402 461.138 57.8138 460.064 59.1382 460.064C60.4626 460.064 61.5362 461.138 61.5362 462.462C61.5362 463.787 60.4626 464.86 59.1382 464.86C57.8138 464.86 56.7402 463.787 56.7402 462.462Z" fill="#3C79CA"/>
</g>
<g opacity="0.305277">
<path d="M843.121 134.875C843.121 133.769 844.018 132.872 845.124 132.872C846.23 132.872 847.127 133.769 847.127 134.875C847.127 135.981 846.23 136.878 845.124 136.878C844.018 136.878 843.121 135.981 843.121 134.875Z" fill="#3C79CA"/>
</g>
<g opacity="0.685699">
<path d="M476.691 234.1C476.691 232.874 477.686 231.88 478.912 231.88C480.138 231.88 481.132 232.874 481.132 234.1C481.132 235.326 480.138 236.32 478.912 236.32C477.686 236.32 476.691 235.326 476.691 234.1Z" fill="#3C79CA"/>
</g>
<g opacity="0.300405">
<path d="M147.074 222.15C147.074 221.045 147.97 220.15 149.074 220.15C150.179 220.15 151.074 221.045 151.074 222.15C151.074 223.254 150.179 224.15 149.074 224.15C147.97 224.15 147.074 223.254 147.074 222.15Z" fill="#3C79CA"/>
</g>
<g opacity="0.996099">
<path d="M492.814 431.337C492.814 430.013 493.888 428.94 495.212 428.94C496.536 428.94 497.61 430.013 497.61 431.337C497.61 432.662 496.536 433.735 495.212 433.735C493.888 433.735 492.814 432.662 492.814 431.337Z" fill="#3C79CA"/>
</g>
<g opacity="0.63645">
<path d="M669.707 145.65C669.707 144.439 670.689 143.458 671.899 143.458C673.11 143.458 674.092 144.439 674.092 145.65C674.092 146.861 673.11 147.842 671.899 147.842C670.689 147.842 669.707 146.861 669.707 145.65Z" fill="#3C79CA"/>
</g>
<g opacity="0.302082">
<path d="M585.574 603.075C585.574 601.97 586.47 601.074 587.575 601.074C588.681 601.074 589.577 601.97 589.577 603.075C589.577 604.18 588.681 605.076 587.575 605.076C586.47 605.076 585.574 604.18 585.574 603.075Z" fill="#3C79CA"/>
</g>
<g opacity="0.37281">
<path d="M1256.07 49.175C1256.07 48.0475 1256.98 47.1334 1258.11 47.1334C1259.24 47.1334 1260.15 48.0475 1260.15 49.175C1260.15 50.3026 1259.24 51.2166 1258.11 51.2166C1256.98 51.2166 1256.07 50.3026 1256.07 49.175Z" fill="#3C79CA"/>
</g>
<g opacity="0.981753">
<path d="M659.111 65.0251C659.111 63.7053 660.181 62.6355 661.501 62.6355C662.821 62.6355 663.89 63.7053 663.89 65.0251C663.89 66.3448 662.821 67.4147 661.501 67.4147C660.181 67.4147 659.111 66.3448 659.111 65.0251Z" fill="#3C79CA"/>
</g>
<g opacity="0.501737">
<path d="M399.66 330.825C399.66 329.657 400.607 328.71 401.775 328.71C402.944 328.71 403.891 329.657 403.891 330.825C403.891 331.993 402.944 332.94 401.775 332.94C400.607 332.94 399.66 331.993 399.66 330.825Z" fill="#3C79CA"/>
</g>
<g opacity="0.815786">
<path d="M171.918 376.337C171.918 375.07 172.945 374.043 174.213 374.043C175.48 374.043 176.507 375.07 176.507 376.337C176.507 377.605 175.48 378.632 174.213 378.632C172.945 378.632 171.918 377.605 171.918 376.337Z" fill="#3C79CA"/>
</g>
<g opacity="0.998668">
<path d="M1144.29 309.1C1144.29 307.775 1145.36 306.701 1146.69 306.701C1148.01 306.701 1149.09 307.775 1149.09 309.1C1149.09 310.425 1148.01 311.499 1146.69 311.499C1145.36 311.499 1144.29 310.425 1144.29 309.1Z" fill="#3C79CA"/>
</g>
<g opacity="0.539669">
<path d="M1105.94 333.8C1105.94 332.62 1106.89 331.663 1108.07 331.663C1109.25 331.663 1110.21 332.62 1110.21 333.8C1110.21 334.98 1109.25 335.937 1108.07 335.937C1106.89 335.937 1105.94 334.98 1105.94 333.8Z" fill="#3C79CA"/>
</g>
<g opacity="0.636712">
<path d="M380.045 68.875C380.045 67.6642 381.026 66.6826 382.237 66.6826C383.448 66.6826 384.43 67.6642 384.43 68.875C384.43 70.0858 383.448 71.0674 382.237 71.0674C381.026 71.0674 380.045 70.0858 380.045 68.875Z" fill="#3C79CA"/>
</g>
<g opacity="0.310209">
<path d="M54.6562 534.375C54.6562 533.267 55.5543 532.369 56.6621 532.369C57.7699 532.369 58.6679 533.267 58.6679 534.375C58.6679 535.483 57.7699 536.381 56.6621 536.381C55.5543 536.381 54.6562 535.483 54.6562 534.375Z" fill="#3C79CA"/>
</g>
<g filter="url(#filter0_d_312_926)">
<path d="M953.512 330.775C953.512 329.67 954.407 328.775 955.512 328.775C956.616 328.775 957.512 329.67 957.512 330.775C957.512 331.88 956.616 332.775 955.512 332.775C954.407 332.775 953.512 331.88 953.512 330.775Z" fill="#3C79CA"/>
</g>
<g filter="url(#filter1_d_312_926)">
<path d="M56.6875 151.1C56.6875 149.995 57.5829 149.1 58.6875 149.1C59.7921 149.1 60.6875 149.995 60.6875 151.1C60.6875 152.205 59.7921 153.1 58.6875 153.1C57.5829 153.1 56.6875 152.205 56.6875 151.1Z" fill="#3C79CA"/>
</g>
<g filter="url(#filter2_d_312_926)">
<path d="M496.926 68.35C496.926 67.2454 497.821 66.35 498.926 66.35C500.03 66.35 500.926 67.2454 500.926 68.35C500.926 69.4545 500.03 70.35 498.926 70.35C497.821 70.35 496.926 69.4545 496.926 68.35Z" fill="#3C79CA"/>
</g>
<defs>
<filter id="filter0_d_312_926" x="941.512" y="316.775" width="28" height="28" filterUnits="userSpaceOnUse" color-interpolation-filters="sRGB">
<feFlood flood-opacity="0" result="BackgroundImageFix"/>
<feColorMatrix in="SourceAlpha" type="matrix" values="0 0 0 0 0 0 0 0 0 0 0 0 0 0 0 0 0 0 127 0" result="hardAlpha"/>
<feMorphology radius="2" operator="dilate" in="SourceAlpha" result="effect1_dropShadow_312_926"/>
<feOffset/>
<feGaussianBlur stdDeviation="5"/>
<feComposite in2="hardAlpha" operator="out"/>
<feColorMatrix type="matrix" values="0 0 0 0 1 0 0 0 0 1 0 0 0 0 1 0 0 0 0.8 0"/>
<feBlend mode="normal" in2="BackgroundImageFix" result="effect1_dropShadow_312_926"/>
<feBlend mode="normal" in="SourceGraphic" in2="effect1_dropShadow_312_926" result="shape"/>
</filter>
<filter id="filter1_d_312_926" x="44.6875" y="137.1" width="28" height="28" filterUnits="userSpaceOnUse" color-interpolation-filters="sRGB">
<feFlood flood-opacity="0" result="BackgroundImageFix"/>
<feColorMatrix in="SourceAlpha" type="matrix" values="0 0 0 0 0 0 0 0 0 0 0 0 0 0 0 0 0 0 127 0" result="hardAlpha"/>
<feMorphology radius="2" operator="dilate" in="SourceAlpha" result="effect1_dropShadow_312_926"/>
<feOffset/>
<feGaussianBlur stdDeviation="5"/>
<feComposite in2="hardAlpha" operator="out"/>
<feColorMatrix type="matrix" values="0 0 0 0 1 0 0 0 0 1 0 0 0 0 1 0 0 0 0.8 0"/>
<feBlend mode="normal" in2="BackgroundImageFix" result="effect1_dropShadow_312_926"/>
<feBlend mode="normal" in="SourceGraphic" in2="effect1_dropShadow_312_926" result="shape"/>
</filter>
<filter id="filter2_d_312_926" x="484.926" y="54.35" width="28" height="28" filterUnits="userSpaceOnUse" color-interpolation-filters="sRGB">
<feFlood flood-opacity="0" result="BackgroundImageFix"/>
<feColorMatrix in="SourceAlpha" type="matrix" values="0 0 0 0 0 0 0 0 0 0 0 0 0 0 0 0 0 0 127 0" result="hardAlpha"/>
<feMorphology radius="2" operator="dilate" in="SourceAlpha" result="effect1_dropShadow_312_926"/>
<feOffset/>
<feGaussianBlur stdDeviation="5"/>
<feComposite in2="hardAlpha" operator="out"/>
<feColorMatrix type="matrix" values="0 0 0 0 1 0 0 0 0 1 0 0 0 0 1 0 0 0 0.8 0"/>
<feBlend mode="normal" in2="BackgroundImageFix" result="effect1_dropShadow_312_926"/>
<feBlend mode="normal" in="SourceGraphic" in2="effect1_dropShadow_312_926" result="shape"/>
</filter>
</defs>
</svg>
