<svg width="21" height="21" viewBox="0 0 21 21" fill="none" xmlns="http://www.w3.org/2000/svg">
<path d="M12.6937 1.34061C12.7982 1.04814 13.0146 0.809144 13.2953 0.67613C13.576 0.543117 13.898 0.52697 14.1906 0.631237C14.5249 0.771862 14.1921 0.631237 14.1921 0.631237L14.1984 0.6328L14.2062 0.637487L14.2296 0.6453C14.3307 0.681835 14.4298 0.723557 14.5265 0.7703C14.7109 0.8578 14.964 0.985925 15.2609 1.16561C15.8531 1.52499 16.6296 2.09686 17.4015 2.95155C18.964 4.68124 20.4374 7.49999 20.4374 11.889C20.4374 12.1999 20.314 12.4979 20.0942 12.7177C19.8744 12.9375 19.5764 13.0609 19.2656 13.0609C18.9548 13.0609 18.6567 12.9375 18.4369 12.7177C18.2171 12.4979 18.0937 12.1999 18.0937 11.889C18.0937 8.07655 16.8327 5.81874 15.6624 4.52186C15.1907 3.99581 14.6455 3.5406 14.0437 3.1703C13.8433 3.04584 13.6339 2.93667 13.4171 2.84374L13.3952 2.83592C13.1043 2.73011 12.867 2.51345 12.7353 2.23328C12.6035 1.95311 12.5896 1.63219 12.6937 1.34061ZM8.24681 4.42967C8.16042 4.21109 8.0103 4.02354 7.81595 3.89137C7.6216 3.75921 7.392 3.68853 7.15696 3.68853C6.92193 3.68853 6.69233 3.75921 6.49798 3.89137C6.30363 4.02354 6.15351 4.21109 6.06712 4.42967L0.207745 19.2734C0.102969 19.5605 0.114485 19.8772 0.239837 20.1559C0.365189 20.4346 0.59446 20.6533 0.878766 20.7654C1.16307 20.8775 1.47992 20.8741 1.76175 20.7559C2.04358 20.6377 2.2681 20.4141 2.38743 20.1328L3.79056 16.5781H10.5218L11.9249 20.1328C12.0389 20.4221 12.2631 20.6542 12.5482 20.7781C12.8333 20.9021 13.156 20.9077 13.4452 20.7937C13.7345 20.6798 13.9666 20.4556 14.0906 20.1705C14.2145 19.8854 14.2201 19.5627 14.1062 19.2734L8.24681 4.42967ZM9.59681 14.2344H4.71556L7.15618 8.05155L9.59681 14.2344ZM13.7656 4.74061C13.5261 4.55228 13.2227 4.46463 12.9196 4.49622C12.6166 4.52782 12.3378 4.67619 12.1423 4.90987C11.9468 5.14356 11.85 5.44419 11.8725 5.74803C11.8949 6.05187 12.0348 6.33503 12.2624 6.53749L12.2718 6.54686L12.3249 6.59374C12.376 6.64061 12.4484 6.71145 12.5421 6.80624C12.7296 6.99842 12.9796 7.28124 13.2296 7.63436C13.7406 8.3578 14.1874 9.2953 14.1874 10.3281C14.1874 10.6389 14.3109 10.937 14.5307 11.1568C14.7504 11.3765 15.0485 11.5 15.3593 11.5C15.6701 11.5 15.9682 11.3765 16.1879 11.1568C16.4077 10.937 16.5312 10.6389 16.5312 10.3281C16.5312 8.62811 15.8062 7.2203 15.1452 6.28436C14.7561 5.73703 14.3093 5.2331 13.8124 4.78124L13.7812 4.75467L13.7718 4.74686L13.7687 4.74374L13.7656 4.74061Z" fill="white"/>
</svg>
