<svg width="70" height="69" viewBox="0 0 70 69" fill="none" xmlns="http://www.w3.org/2000/svg">
<g clip-path="url(#clip0_1600_3998)">
<path d="M69.5 34.5C69.5 15.4463 54.0537 0 35 0C15.9463 0 0.5 15.4463 0.5 34.5C0.5 51.7198 13.1162 65.9928 29.6094 68.5809V44.4727H20.8496V34.5H29.6094V26.8992C29.6094 18.2527 34.7601 13.4766 42.6407 13.4766C46.4152 13.4766 50.3633 14.1504 50.3633 14.1504V22.6406H46.013C41.7272 22.6406 40.3906 25.3001 40.3906 28.0286V34.5H49.959L48.4294 44.4727H40.3906V68.5809C56.8838 65.9928 69.5 51.7201 69.5 34.5Z" fill="#1877F2"/>
<path d="M48.4313 44.4727L49.9609 34.5H40.3926V28.0286C40.3926 25.2998 41.7292 22.6406 46.015 22.6406H50.3652V14.1504C50.3652 14.1504 46.4171 13.4766 42.6424 13.4766C34.7621 13.4766 29.6113 18.2527 29.6113 26.8992V34.5H20.8516V44.4727H29.6113V68.5809C31.3946 68.8603 33.1969 69.0004 35.002 69C36.807 69.0004 38.6093 68.8603 40.3926 68.5809V44.4727H48.4313Z" fill="white"/>
</g>
<defs>
<clipPath id="clip0_1600_3998">
<rect width="69" height="69" fill="white" transform="translate(0.5)"/>
</clipPath>
</defs>
</svg>
