<svg width="70" height="69" viewBox="0 0 70 69" fill="none" xmlns="http://www.w3.org/2000/svg">
<g clip-path="url(#clip0_1600_3986)">
<path d="M53.332 0H16.6758C7.7443 0 0.503906 7.2404 0.503906 16.1719V52.8281C0.503906 61.7596 7.7443 69 16.6758 69H53.332C62.2635 69 69.5039 61.7596 69.5039 52.8281V16.1719C69.5039 7.2404 62.2635 0 53.332 0Z" fill="white"/>
<path d="M53.332 0H16.6758C7.7443 0 0.503906 7.2404 0.503906 16.1719V52.8281C0.503906 61.7596 7.7443 69 16.6758 69H53.332C62.2635 69 69.5039 61.7596 69.5039 52.8281V16.1719C69.5039 7.2404 62.2635 0 53.332 0Z" fill="#1D9BF0"/>
<path d="M54.2948 24.6381C54.3244 25.0659 54.3244 25.4936 54.3244 25.9254C54.3244 39.0777 44.3119 54.2464 26.0034 54.2464V54.2383C20.5948 54.2461 15.2982 52.6971 10.7461 49.7762C11.5329 49.8705 12.3227 49.9184 13.1153 49.9199C17.5981 49.9235 21.952 48.4199 25.4773 45.6508C23.4003 45.6114 21.3875 44.924 19.7202 43.6847C18.053 42.4454 16.8146 40.7162 16.1782 38.7386C17.6695 39.0263 19.2069 38.9676 20.6719 38.5672C16.0284 37.629 12.6875 33.5491 12.6875 28.8107V28.6846C14.0718 29.4557 15.621 29.8829 17.2049 29.9304C12.8315 27.0073 11.4833 21.1889 14.1241 16.6398C16.6229 19.715 19.7407 22.2302 23.275 24.0217C26.8092 25.8133 30.6809 26.8413 34.6384 27.0388C34.2438 25.3403 34.3021 23.568 34.8074 21.8991C35.3127 20.2303 36.2474 18.7233 37.5178 17.529C41.5268 13.7604 47.832 13.9536 51.6006 17.9605C53.8296 17.5204 55.9672 16.7032 57.9213 15.5441C57.1783 17.8488 55.6233 19.8051 53.5458 21.049C55.5189 20.8163 57.4457 20.2882 59.2617 19.4822C57.926 21.4828 56.244 23.2286 54.2948 24.6381Z" fill="white"/>
</g>
<defs>
<clipPath id="clip0_1600_3986">
<rect width="69" height="69" fill="white" transform="translate(0.5)"/>
</clipPath>
</defs>
</svg>
