<svg width="70" height="69" viewBox="0 0 70 69" fill="none" xmlns="http://www.w3.org/2000/svg">
<g clip-path="url(#clip0_1600_3981)">
<path d="M53.3281 0H16.6719C7.7404 0 0.5 7.2404 0.5 16.1719V52.8281C0.5 61.7596 7.7404 69 16.6719 69H53.3281C62.2596 69 69.5 61.7596 69.5 52.8281V16.1719C69.5 7.2404 62.2596 0 53.3281 0Z" fill="url(#paint0_radial_1600_3981)"/>
<path d="M53.3281 0H16.6719C7.7404 0 0.5 7.2404 0.5 16.1719V52.8281C0.5 61.7596 7.7404 69 16.6719 69H53.3281C62.2596 69 69.5 61.7596 69.5 52.8281V16.1719C69.5 7.2404 62.2596 0 53.3281 0Z" fill="url(#paint1_radial_1600_3981)"/>
<path d="M35.0024 7.54688C27.6825 7.54688 26.7637 7.57895 23.8888 7.70967C21.0194 7.8412 19.0607 8.29536 17.3471 8.96191C15.5741 9.6503 14.0704 10.5713 12.5723 12.0699C11.0729 13.5682 10.1519 15.0719 9.46138 16.8441C8.79294 18.5583 8.33824 20.5178 8.20913 23.3859C8.08057 26.261 8.04688 27.1801 8.04688 34.5003C8.04688 41.8205 8.07922 42.7363 8.20967 45.6112C8.34174 48.4806 8.7959 50.4393 9.46191 52.1529C10.1508 53.9259 11.0718 55.4296 12.5704 56.9277C14.0682 58.4271 15.5719 59.3502 17.3435 60.0386C19.0586 60.7052 21.0175 61.1593 23.8864 61.2909C26.7615 61.4216 27.6795 61.4537 34.9992 61.4537C42.3199 61.4537 43.2358 61.4216 46.1106 61.2909C48.98 61.1593 50.9409 60.7052 52.6559 60.0386C54.4281 59.3502 55.9296 58.4271 57.4272 56.9277C58.9266 55.4296 59.8473 53.9259 60.5381 52.1538C61.2006 50.4393 61.6556 48.48 61.7903 45.6117C61.9194 42.7369 61.9531 41.8205 61.9531 34.5003C61.9531 27.1801 61.9194 26.2615 61.7903 23.3864C61.6556 20.517 61.2006 18.5586 60.5381 16.8449C59.8473 15.0719 58.9266 13.5682 57.4272 12.0699C55.928 10.5707 54.4286 9.64976 52.6543 8.96218C50.936 8.29536 48.9763 7.84093 46.1068 7.70967C43.2318 7.57895 42.3164 7.54688 34.9941 7.54688H35.0024ZM32.5845 12.4041C33.3022 12.403 34.103 12.4041 35.0024 12.4041C42.1992 12.4041 43.052 12.43 45.8939 12.5591C48.5218 12.6793 49.9482 13.1184 50.8983 13.4873C52.1562 13.9757 53.0529 14.5598 53.9958 15.5034C54.9391 16.4468 55.5229 17.3451 56.0127 18.603C56.3816 19.5518 56.8213 20.9782 56.9409 23.6061C57.07 26.4475 57.0981 27.3008 57.0981 34.4941C57.0981 41.6873 57.07 42.5409 56.9409 45.3821C56.8207 48.01 56.3816 49.4363 56.0127 50.3854C55.5243 51.6433 54.9391 52.5389 53.9958 53.4817C53.0524 54.4251 52.1567 55.0089 50.8983 55.4976C49.9493 55.8682 48.5218 56.3062 45.8939 56.4264C43.0525 56.5555 42.1992 56.5835 35.0024 56.5835C27.8054 56.5835 26.9523 56.5555 24.1112 56.4264C21.4833 56.3051 20.0569 55.866 19.106 55.497C17.8484 55.0084 16.9498 54.4246 16.0064 53.4812C15.063 52.5378 14.4792 51.6416 13.9895 50.3832C13.6205 49.4342 13.1809 48.0078 13.0612 45.3799C12.9321 42.5385 12.9063 41.6852 12.9063 34.4873C12.9063 27.2895 12.9321 26.4407 13.0612 23.5993C13.1814 20.9714 13.6205 19.5451 13.9895 18.595C14.4782 17.3371 15.063 16.4387 16.0067 15.4954C16.9503 14.552 17.8484 13.9679 19.1063 13.4784C20.0564 13.1078 21.4833 12.6699 24.1112 12.5491C26.5976 12.4367 27.5612 12.403 32.5845 12.3974V12.4041ZM49.39 16.8794C47.6044 16.8794 46.1556 18.3268 46.1556 20.1127C46.1556 21.8983 47.6044 23.3471 49.39 23.3471C51.1757 23.3471 52.6244 21.8983 52.6244 20.1127C52.6244 18.327 51.1757 16.8783 49.39 16.8783V16.8794ZM35.0024 20.6585C27.3585 20.6585 21.1609 26.8561 21.1609 34.5003C21.1609 42.1444 27.3585 48.3391 35.0024 48.3391C42.6466 48.3391 48.842 42.1444 48.842 34.5003C48.842 26.8564 42.6461 20.6585 35.0019 20.6585H35.0024ZM35.0024 25.5157C39.9642 25.5157 43.987 29.5379 43.987 34.5003C43.987 39.4621 39.9642 43.4848 35.0024 43.4848C30.0406 43.4848 26.0181 39.4621 26.0181 34.5003C26.0181 29.5379 30.0404 25.5157 35.0024 25.5157Z" fill="white"/>
</g>
<defs>
<radialGradient id="paint0_radial_1600_3981" cx="0" cy="0" r="1" gradientUnits="userSpaceOnUse" gradientTransform="translate(18.8281 74.3143) rotate(-90) scale(68.3841 63.6026)">
<stop stop-color="#FFDD55"/>
<stop offset="0.1" stop-color="#FFDD55"/>
<stop offset="0.5" stop-color="#FF543E"/>
<stop offset="1" stop-color="#C837AB"/>
</radialGradient>
<radialGradient id="paint1_radial_1600_3981" cx="0" cy="0" r="1" gradientUnits="userSpaceOnUse" gradientTransform="translate(-11.0578 4.97043) rotate(78.681) scale(30.5681 126.003)">
<stop stop-color="#3771C8"/>
<stop offset="0.128" stop-color="#3771C8"/>
<stop offset="1" stop-color="#6600FF" stop-opacity="0"/>
</radialGradient>
<clipPath id="clip0_1600_3981">
<rect width="69" height="69" fill="white" transform="translate(0.5)"/>
</clipPath>
</defs>
</svg>
