<svg xmlns="http://www.w3.org/2000/svg" width="1200" height="751"><path fill="#FD8571" d="M924 665c17.757-.122 35.497.003 53.25.438l2.572.059c9.425.222 18.792.553 28.178 1.503-1.304 2.855-2.71 4.981-4.871 7.25l-1.725 1.827-1.841 1.923-3.801 4.02-1.917 2.022a681 681 0 0 0-7.97 8.645A824 824 0 0 1 981 698l-1.992 2.395L977 702c-2.45.004-2.45.004-5-1-2.457-1.848-2.457-1.848-4.812-4.062l-2.395-2.223L963 693c-4.42 1.583-7.453 3.793-11.035 6.758L950 701h-4l-1-12h-4v-2h2v-2h2c.121-2.278-.111-4.234-.574-6.473-1.479-2.62-2.274-3.302-4.758-4.836-3.801-2.09-7.717-3.904-11.668-5.691a338 338 0 0 1-4-2zM89 521h3c1.621 1.809 1.621 1.809 3.438 4.438l2.128 3.039 1.173 1.7c1.847 2.67 3.725 5.316 5.6 7.966a3847 3847 0 0 1 4.657 6.6 2387 2387 0 0 0 11.622 16.33q1.5 2.092 2.998 4.185 2.596 3.624 5.197 7.242l1.634 2.285c2.381 3.307 4.78 6.532 7.44 9.621L140 587v2c-5.599-1.618-10.076-4.275-14.965-7.342-1.627-.977-3.33-1.826-5.035-2.658-2.79.073-4.124 1.073-6.55 2.488l-2.763 1.824-2.925 1.895L105 587c-2.315 1.48-4.535 2.768-7 4l-3-1 1-18-16-4c-1.125-5.625-1.125-5.625-.196-9.423l.607-2.547.679-2.706.677-2.803c.714-2.947 1.442-5.89 2.17-8.833q.732-3.001 1.46-6.002Q87.183 528.339 89 521M1091 92c7.708.652 15.03 2.265 22.547 4.055l3.904.915q5.112 1.201 10.223 2.414 5.146 1.216 10.295 2.425 7.596 1.785 15.19 3.581c6.609 1.56 13.223 3.09 19.841 4.61v2c-.645.1-1.291.198-1.956.3-2.941.479-5.865 1.026-8.794 1.575l-3.078.469c-3.016.595-5.452 1.215-8.172 2.656-2.187 3.124-3.067 6.332-4 10a286 286 0 0 1-1.484 4.258 818 818 0 0 0-1.266 3.867l-.668 2.031A1742 1742 0 0 0 1142 142l-3-1c-2.127-2.76-4.028-5.635-5.965-8.531-1.79-2.519-1.79-2.519-4.015-3.434-2.605-.045-4.092.703-6.395 1.903-2.637 1.212-5 2.165-7.812 2.937L1112 133c-5.22-6.955-8.882-15.31-12.861-23.035a1584 1584 0 0 0-3.1-5.969l-1.969-3.808-1.788-3.458C1091 94 1091 94 1091 92"/><path fill="#F9735B" d="M397 561v2h-2v5h-9l1-3 5-1v-2c2-1 2-1 5-1M924 665q2.156.214 4.313.438c.8.08 1.6.162 2.425.246C933 666 933 666 936 667l-1 4c-3.791-1.45-7.387-3.152-11-5zM953 695h2c-1 3-1 3-2.812 4.688L950 701h-4v-5c1.454.03 1.454.03 2.938.063L952 696zM89 521h3c1.387 1.75 1.387 1.75 2.688 4l1.324 2.25L97 529l-2.312-.937A111 111 0 0 0 89 526zM1137 136h4v2h2l-1 4-3-1c-1.187-2.562-1.187-2.562-2-5M186 0h5l-1 4-4-1zM171 0h5v3l-3 1-2-1z"/><path fill="#FE8672" d="M742 166h6v2l-5 1z"/><path fill="#F9735B" d="m5 91-2 4H0v-3c2-1 2-1 5-1M194 0h4v4l-4-1z"/><path fill="#FE8672" d="M822 734h5v2l-6 1z"/><path fill="#FA7861" d="M469 511h3l-2 4-4-2z"/><path fill="#F9735B" d="M497 494v3l-5 1 1-3c2-1 2-1 4-1M1142 144l4 2v3l-4-2z"/><path fill="#FE8672" d="M27 63h3l-2 4h-3z"/><path fill="#F9735B" d="m360 37 6 1v2l-6-1zM202 0l3 1v3h-4zM178 0h5v3l-5-1zM164 0h4l-1 4-3-1zM157 0h3v4h-4zM594 717l5 1v2l-5-1zM548 692l4 1v3l-5-2zM528 680c1.938.313 1.938.313 4 1l1 3-5-2zM503 663l5 1v3c-1.937-.312-1.937-.312-4-1zM462 630c1.938.313 1.938.313 4 1l1 3c-1.937-.312-1.937-.312-4-1zM285 622v3l-5 1 1-3c2-1 2-1 4-1M445 615c1.938.313 1.938.313 4 1l1 3c-1.937-.312-1.937-.312-4-1z"/><path fill="#FE8672" d="M312 609v3l-5 1 1-3c2-1 2-1 4-1"/><path fill="#F9735B" d="M429 600c1.938.313 1.938.313 4 1l1 3c-1.937-.312-1.937-.312-4-1zM408 579l4 2v2l-4-1zM369 576h2v3l-5 1v-2zM98 512h2l-1 5h-2zM109 493h2l-1 5h-3zM542 468v3l-5 1 1-3c2-1 2-1 4-1"/><path fill="#FB7B65" d="M553 461h3l-1 3c-2.062.688-2.062.688-4 1z"/><path fill="#F9735B" d="M167 458v2l-5 1-1-2c2-1 2-1 6-1M580 448h3l-1 3h-5c1.313-1.5 1.313-1.5 3-3M662 413h4l-1 3h-4zM1095 375l6 1v2l-6-1zM999 359l5 1v2h-5zM1000 288a100 100 0 0 1 5 0v2c-1.875.625-1.875.625-4 1l-2-2zM918 280l5 1v2l-5-1zM904 274l4 1-1 3-4-2zM1072 262h3l-2 4-3-1zM820 225l4 2v2l-4-1zM1148 158l3 1v4l-3-1zM1146 151l3 1v4l-3-1z"/><path fill="#FE8672" d="M775 133h2v5l-3-1zM489 126l5 1v3c-1.937-.875-1.937-.875-4-2z"/><path fill="#F9735B" d="m754 111 5 1v2l-5-1zM436 84c1.938.313 1.938.313 4 1l1 3c-1.937-.312-1.937-.312-4-1zM420 70l4 2v2l-4-1z"/><path fill="#FE8672" d="M748 748h4v3h-4z"/><path fill="#F9735B" d="m741 748 4 1v2h-5zM696 746l4 1v2l-5-1zM622 728l5 1v2l-5-1zM844 726h4v2l-5 1z"/><path fill="#FE8672" d="m875 714-1 3h-4v-2c2-1 2-1 5-1"/><path fill="#F9735B" d="M899 703h4v2l-5 1zM927 692h4v2l-5 1z"/><path fill="#FE8672" d="M181 651h4v3h-4z"/><path fill="#F9735B" d="M197 650h3v3l-5-1zM158 648l6 1v2c-2.437-.375-2.437-.375-5-1zM480 645l4 1v3l-4-2z"/><path fill="#FE8672" d="m152 645 5 1v2l-5-1zM233 642h4v2l-5 1z"/><path fill="#F9735B" d="M247 637h4v2l-5 1zM468 635l4 1v3l-4-2zM262 631h3l-1 3-3 1v-3zM440 610l4 1v3l-4-2zM106 598l3 1c.688 2.063.688 2.063 1 4l-4-2zM424 595l4 1v3l-4-2zM402 574l4 1v3l-4-2zM420 544h2l-1 4h-3zM432 536h2l-1 4h-3zM357 535l4 1v3l-4-2zM339 521l4 1v3l-4-2zM463 515h2l-1 4h-3zM308 500l5 1v2l-5-1zM302 496l5 1v2l-5-1z"/><path fill="#FE8672" d="m289 488 5 1v2l-5-1zM506 487h4v2l-5 1z"/><path fill="#F9735B" d="m523 479-1 3h-4v-2c2-1 2-1 5-1M146 465l-1 3h-4v-2c2-1 2-1 5-1"/><path fill="#FE8672" d="M559 458c2.125.375 2.125.375 4 1l-2 2c-2.125-.375-2.125-.375-4-1z"/><path fill="#F9735B" d="M586 445h4v2l-5 1zM627 427h4v2l-5 1z"/><path fill="#FE8672" d="m645 421-1 3h-4v-2c2-1 2-1 5-1"/><path fill="#F9735B" d="m678 407 2 1v2l-5 1 1-3zM1175 396l5 1v2l-5-1zM744 386l-1 3h-4v-2c2-1 2-1 5-1"/><path fill="#FE8672" d="M747 384h4v2l-5 1z"/><path fill="#F9735B" d="M886 357h5l-1 3-4-1zM909 356h5v2l-4 1zM902 356h4l-1 3-4-1z"/><path fill="#FE8672" d="M977 290h5v2l-4 1zM970 290h4v3h-4z"/><path fill="#F9735B" d="M1016 284h3v3h-5zM925 282l5 1v2l-5-1zM1037 278h4v2l-5 1z"/><path fill="#FE8672" d="m1048 275-1 3h-4v-2c2-1 2-1 5-1"/><path fill="#F9735B" d="m1062 269-1 3h-4v-2c2-1 2-1 5-1M883 265l5 1v2l-5-1zM863 254l5 1v2l-5-1z"/><path fill="#FE8672" d="M1092 250h2l-1 4h-3z"/><path fill="#F9735B" d="M1115 232h3l-2 4h-2zM1121 226h2l-1 4h-3zM1126 221h3l-2 4h-2zM807 216l5 2v2c-1.937-.312-1.937-.312-4-1zM801 212l4 1v3l-4-2z"/><path fill="#FE8672" d="M1140 202h2l-1 4h-3z"/><path fill="#F9735B" d="m1143 196 3 1-1 3h-3zM777 194l4 1v3l-4-2zM759 181l4 1v3l-4-1zM747 172l4 1v3l-4-2zM742 170l-1 3h-4v-2c2-1 2-1 5-1"/><path fill="#FE8672" d="m602 167 5 1v2l-5-1zM1149 166h3v4h-3z"/><path fill="#F9735B" d="M752 162h2l-1 4h-3zM738 159l3 1v4h-2zM566 158l5 1v2l-5-1zM764 153h2l-1 4h-3zM735 152h2l1 5-3-1zM523 143l5 1v2l-5-1zM774 141h2l-1 5h-2zM734 129h2v5h-3zM772 126h3l1 4h-3zM737 122h2l-1 5h-2zM741 116h3l-2 4h-2zM761 114c1.938.313 1.938.313 4 1l1 3c-1.937-.312-1.937-.312-4-1zM32 58h3l-2 4h-2zM354 34l5 1v2l-5-1zM348 31l4 1v2h-5z"/><path fill="#FE8672" d="M86 18h3l-1 3-3 1v-3z"/><path fill="#F9735B" d="M268 9h4v3h-4zM260 8h5l-1 3-4-1z"/><path fill="#FE8672" d="m734 748 4 2v1h-6z"/><path fill="#F9735B" d="M703 747h4v3l-4-1z"/><path fill="#FE8672" d="M778 745h4l-1 3h-3z"/><path fill="#F9735B" d="m688 745 4 1v2h-4zM680 744h4v3l-4-1zM665 741l5 1v2l-5-1z"/><path fill="#FE8672" d="M801 740h3v3h-4z"/><path fill="#F9735B" d="m819 736-1 3h-4v-2c3-1 3-1 5-1M608 723l5 1-1 2-4-1z"/><path fill="#FE8672" d="M858 720h3l-1 3-4-1z"/><path fill="#F9735B" d="m601 720 5 1v2l-5-1zM865 717h3l-1 3-4-1z"/><path fill="#FE8672" d="M879 711h3l-1 3-4-1z"/><path fill="#F9735B" d="M892 706h4v2l-5 1zM906 700h3v3h-4zM560 700l5 1v2c-1.937-.375-1.937-.375-4-1zM554 696l4 1-1 3-3-2zM522 676l4 1-1 3-3-2zM516 672l4 1-1 3-3-2zM492 654l4 1-1 3-3-1zM165 650h5v3l-5-2zM474 640l4 1-1 3-3-2z"/><path fill="#FE8672" d="m139 638 5 1v2c-1.937-.375-1.937-.375-4-1zM118 618l4 1v3l-3-1zM316 606h3l-1 3-4-1z"/><path fill="#F9735B" d="m434 605 4 1v3l-3-1zM110 605l3 1-1 4-2-2z"/><path fill="#FE8672" d="M343 591h2v3l-4 1zM352 588v2l-5 1v-2c2-1 2-1 5-1"/><path fill="#F9735B" d="M355 584h3l-1 3-3 1zM374 573l4 1-2 2h-3zM381 569h3l-1 3-4-1zM385 559l4 1-1 3-3-2zM400 557h3l-1 3-3 1zM380 554l4 2v2l-4-1zM416 549v2l-5 1v-2c2-1 2-1 5-1M375 549l3 1v3l-4-2zM351 530l4 1v3l-4-2zM327 512l4 1v3l-4-2zM321 508l4 1-1 3-3-2zM113 488h3l-2 4h-2z"/><path fill="#FE8672" d="m276 481 5 1v2l-5-1zM536 472v2l-5 1v-2c2-1 2-1 5-1M136 469h3l-1 3-4-1z"/><path fill="#F9735B" d="M149 462h3l-1 3-4-1zM221 459l4 1v2l-5-1zM184 455h4l-1 3h-3zM177 455l4 1v2h-4zM599 439h4v2l-5 1z"/><path fill="#FE8672" d="m608 435 2 1v2l-4 1v-3zM613 433h4v2l-5 1z"/><path fill="#F9735B" d="M638 424v2l-5 1v-2c2-1 2-1 5-1"/><path fill="#FE8672" d="M655 416h4v2l-5 1z"/><path fill="#F9735B" d="M690 403h4l-1 3h-3zM754 382h4v2l-4 1zM1111 378l4 1v2h-4zM1102 377h6v2h-5z"/><path fill="#FE8672" d="M784 373h3l-1 3-4-1z"/><path fill="#F9735B" d="M1066 369h4v3l-4-1zM1052 366l4 1v2l-5-1z"/><path fill="#FE8672" d="M813 366h3v3h-4zM1036 364h4v3l-5-1zM984 358h4v3l-4-1z"/><path fill="#F9735B" d="M872 358h4v2l-4 1zM939 286l6 1-1 2c-1.937-.375-1.937-.375-4-1zM877 261l4 1-1 3-3-1zM1078 259l4 1-2 2h-3zM870 258l5 1v2l-5-1zM850 246c1.938.313 1.938.313 4 1l1 3c-1.937-.875-1.937-.875-4-2zM844 242l4 1-1 3-3-2zM1136 209h2l-1 4h-3zM789 203l4 1-1 3-3-2zM765 185l4 2v2l-4-1zM752 177l5 1v2c-1.937-.375-1.937-.375-4-1zM655 175l4 1v2h-4zM1149 174h3l-1 4h-2zM574 160l4 1v2l-5-1zM758 158h2v3l-4 1zM769 148h3l-2 4h-2zM733 145h3v4l-3-1zM516 140l5 1v2c-1.937-.375-1.937-.375-4-1zM496 130l5 1v2c-1.937-.375-1.937-.375-4-1zM477 118l4 1-1 3-3-2zM747 112h4v2l-5 1z"/><path fill="#FE8672" d="M17 74h2l-1 4h-3z"/><path fill="#F9735B" d="M22 68h2l-1 4-3-1zM394 54l5 1v2l-5-1zM37 53h3l-1 3-3 1zM387 50l5 1v2c-1.937-.375-1.937-.375-4-1zM375 43l4 1-1 3-3-1zM55 38h2l-1 4-3-1zM66 30l4 1-2 2h-3zM72 26h4v2l-4 1zM325 24h5v3l-5-2zM290 14h4v3l-4-1zM283 12l5 1-1 2-4-1z"/><path fill="#FE8672" d="M102 12v3l-4 1v-3c2-1 2-1 4-1"/><path fill="#F9735B" d="m276 10 4 1v2h-5z"/><path fill="#FE8672" d="M105 10h5c-1.375 1.5-1.375 1.5-3 3h-2z"/><path fill="#F9735B" d="M120 6h4v2l-4 1zM239 4l4 1v2h-4zM128 4l3 1v2h-5z"/><path fill="#FE8672" d="m136 3 3 2-1 1c-1.666.04-3.334.043-5 0z"/><path fill="#F9735B" d="M216 2h4v3l-4-1z"/><path fill="#FE8672" d="m726 748 4 2v1h-5z"/><path fill="#F9735B" d="M793 742h4v2l-4 1zM658 739l4 1v2l-4-1zM811 738v3h-4v-2c2-1 2-1 4-1M629 731h4v3l-4-1zM588 714l4 1v2l-4-1zM581 711h4v3l-4-1zM886 708h2v3l-3 1v-3zM574 707l4 1v2l-4-1zM921 694l3 1-3 3-1-3zM535 685h4v3l-4-1zM498 659l4 1v2l-4-1z"/><path fill="#FE8672" d="M188 651h5v2h-5z"/><path fill="#F9735B" d="m486 650 4 1v2l-4-1zM204 649h3v3l-4-1zM218 646h4v2l-4 1z"/><path fill="#FE8672" d="M226 644h3l-1 3h-3z"/><path fill="#F9735B" d="m146 642 4 1v2l-4-1zM133 633l4 1-1 3q-1.53-1.47-3-3z"/><path fill="#FE8672" d="M268 629h3l-1 3h-3z"/><path fill="#F9735B" d="m128 628 4 1v3l-4-2zM457 626l4 1v2l-4-1zM123 623l4 2v2l-4-2z"/><path fill="#FE8672" d="M289 619h3l-1 3h-3zM299 616v2l-5 1v-2c2-1 2-1 5-1"/><path fill="#F9735B" d="m114 611 3 1v3l-3-1zM325 602v3h-4v-2c2-1 2-1 4-1M329 599h3l-1 3h-3z"/><path fill="#FE8672" d="M339 595v2l-5 1v-2c2-1 2-1 5-1"/><path fill="#F9735B" d="m413 584 4 2v2h-3zM362 580h2v3l-4 1z"/><path fill="#FE8672" d="m397 569 3 1v3l-3-1z"/><path fill="#F9735B" d="M406 553h3l-1 3h-3zM369 545l4 1v2l-4-1zM425 541h3l-1 3h-3zM363 540l4 1v2l-4-1zM345 526l4 1v2l-4-1zM95 520h3l-1 4h-2zM333 517l4 1v2l-4-1z"/><path fill="#FE8672" d="M101 506h2l-1 4h-2z"/><path fill="#F9735B" d="m315 504 4 1v2l-4-1zM481 503h3l-1 3h-3zM296 492l4 1v2l-4-1zM500 491h3l-1 3h-3zM283 485h4v3l-4-1zM513 483h3l-1 3h-3zM269 478l5 1v2l-5-2zM130 473h3v2l-5 1zM256 471l4 1v2l-4-1z"/><path fill="#FE8672" d="m250 468 3 1-1 3-3-1z"/><path fill="#F9735B" d="M242 466h4v3l-4-1z"/><path fill="#FE8672" d="M546 465h3v2l-5 1z"/><path fill="#F9735B" d="m228 461 4 1v2h-4zM213 458h4v3l-4-1zM199 455l4 1v2h-4zM192 455h3v3l-4-1zM1190 401l5 1-1 2-4-1zM698 400h3l-1 3h-3zM705 398h3l-1 3h-3zM719 393h3l-1 3h-3zM726 391l4 1-5 2zM1154 390h4v3l-4-1zM1147 387l4 1v2l-5-1z"/><path fill="#FE8672" d="M1139 386h5v2h-5z"/><path fill="#F9735B" d="M765 379v3h-4v-2c2-1 2-1 4-1"/><path fill="#FE8672" d="M772 377v3h-4v-2c2-1 2-1 4-1"/><path fill="#F9735B" d="M794 371v3h-4v-2c2-1 2-1 4-1M1044 365l4 1v2l-4-1zM1029 363h4v3l-4-1z"/><path fill="#FE8672" d="M860 359v3h-4v-2c2-1 2-1 4-1"/><path fill="#F9735B" d="M969 357h5v2h-5zM955 356h3v3l-4-1zM931 356h5v2h-5zM917 356h4v2l-4 1z"/><path fill="#FE8672" d="M985 290h5v2h-5z"/><path fill="#F9735B" d="M962 290h5v2h-5zM992 289h5v2h-5zM947 288h5v2h-5zM933 284l4 1v2l-5-1zM911 277l4 1v2l-4-1zM897 271l4 1v2h-4zM890 268l4 1v2l-4-1zM1065 266h3l-1 3h-3zM857 250l4 1v2l-4-1zM1103 242h3l-1 3h-3z"/><path fill="#FE8672" d="m838 238 4 1v2l-4-1z"/><path fill="#F9735B" d="M1109 237h3l-1 3h-3zM832 234l4 1v2l-4-1zM826 230l4 1v2l-4-1z"/><path fill="#FE8672" d="M1131 215h2l-1 4h-2z"/><path fill="#F9735B" d="m795 208 4 1v2l-4-1zM783 199l4 1v2l-4-1zM1146 189h2l-1 4h-2zM1148 181h2v5h-2z"/><path fill="#FE8672" d="m704 177-1 3-4-2c2-1 2-1 5-1"/><path fill="#F9735B" d="M723 175h3l-1 3h-3z"/><path fill="#FE8672" d="M632 173h5v2h-5z"/><path fill="#F9735B" d="M610 169h4v3l-4-1zM595 166h5v2h-5zM588 164l4 1v2l-4-1zM581 162l4 1v2h-4z"/><path fill="#FE8672" d="M530 146h4v3l-4-1z"/><path fill="#F9735B" d="M733 137h2v5h-2zM509 137l5 1-1 2-4-2z"/><path fill="#FE8672" d="m503 133 4 1-1 3-3-2z"/><path fill="#F9735B" d="m471 114 4 1v2l-4-1zM459 105l4 1v2l-4-1zM453 100l4 1v2l-4-1z"/><path fill="#FE8672" d="m443 89 3 1v3l-3-1z"/><path fill="#F9735B" d="M7 85h2l-1 4H6z"/><path fill="#FE8672" d="M11 80h3l-1 3h-3z"/><path fill="#F9735B" d="m425 75 4 1v2l-4-1zM413 66l4 1v2l-4-1zM407 62l4 1v2l-4-1zM381 47l5 1v2l-5-2zM367 40l5 1v2c-1.937-.375-1.937-.375-4-1zM340 29h4v3l-4-1zM318 22h5l1 2h-5zM79 22h3l-1 3h-3z"/><path fill="#FE8672" d="m305 17 4 1v2l-5-1zM297 16h5v2h-5zM95 15v3h-4v-2c2-1 2-1 4-1"/><path fill="#F9735B" d="m246 5 4 1v2h-4zM231 4h5v2h-5zM141 3h5v2h-5z"/><path fill="#FE8672" d="M208 2h5v2h-5z"/><path fill="#F9735B" d="M718 748h3v3h-3zM785 744h5l-1 2h-4z"/><path fill="#FE8672" d="m674 742 3 1v2h-4z"/><path fill="#F9735B" d="M829 732h4v2h-5z"/><path fill="#FE8672" d="M837 729h3v2l-4 1z"/><path fill="#F9735B" d="M615 726h4v3l-4-2zM567 704h4v3l-4-2zM937 689l-1 3h-3v-2c2-1 2-1 4-1M510 668l4 1-1 2-3-1zM211 648h4v2l-4 1z"/><path fill="#FE8672" d="M275 626h3v2l-4 1z"/><path fill="#F9735B" d="M302 613h3v2l-4 1z"/><path fill="#FE8672" d="M418 590h4v3l-4-2zM437 533h3l-1 3-3-1z"/><path fill="#F9735B" d="M444 528h3v2l-4 1z"/><path fill="#FE8672" d="M105 499h2v3l-3 1zM125 477l2 2-4 2z"/><path fill="#F9735B" d="m263 474 4 1v2h-4zM620 430l4 1-4 2zM673 410l-1 3h-3v-2c2-1 2-1 4-1"/><path fill="#FE8672" d="m1183 398 3 1v2l-4-1z"/><path fill="#F9735B" d="M1168 394h4l-1 3-3-1zM1125 382h4l-1 3-3-1zM1118 380l4 1v2l-4-1zM779 375l-1 3h-3v-2c2-1 2-1 4-1M806 368h3v2l-4 1zM834 363h5l-1 2h-4z"/><path fill="#FE8672" d="M1022 362h3v3h-3zM841 362h5l-1 2h-4z"/><path fill="#F9735B" d="m1013 361 5 1-2 2zM1007 360h3v3l-4-2zM880 357l3 1-1 2h-3zM895 356l3 1-1 2h-3z"/><path fill="#FE8672" d="M1098 246h2v3l-3 1zM708 177h4v2h-5zM677 177h4l-1 3-3-1zM648 174l3 1v2h-4z"/><path fill="#F9735B" d="M624 172h5v2l-5-1zM559 156l4 1v2l-4-1zM545 151h3v3h-3zM484 122l3 1-1 3-2-1zM768 119h2l1 4-3-1zM447 95h4v3l-4-2zM431 79l4 2v2l-4-2zM311 20h5v2l-5-1zM112 8h5l-1 2h-4zM224 3h4v2h-5z"/><path fill="#FE8672" d="M763 747h4v2h-4zM771 746h4v2h-4z"/><path fill="#F9735B" d="M651 738h4v2h-4zM914 697h2v3h-3zM541 689h4l-1 3z"/><path fill="#FE8672" d="M174 651h4v2h-4z"/><path fill="#F9735B" d="M253 635h4v2h-4zM451 621l4 1v2l-4-2zM103 592l3 1-1 3zM457 519h2v3h-3zM119 482h2v3h-3z"/><path fill="#FE8672" d="M525 476h3l-1 3h-2z"/><path fill="#F9735B" d="M235 464h4v2h-4zM155 460h3v2l-3 1z"/><path fill="#FE8672" d="M573 451h2v3h-3z"/><path fill="#F9735B" d="M1197 403h3v3l-3-1z"/><path fill="#FE8672" d="M711 396h4v2h-4z"/><path fill="#F9735B" d="M1161 392h4v2h-4z"/><path fill="#FE8672" d="M733 389h3v2l-3 1z"/><path fill="#F9735B" d="M1132 384h4v2h-4z"/><path fill="#FE8672" d="M1081 372h4v2h-4z"/><path fill="#F9735B" d="M798 370h4v2h-4z"/><path fill="#FE8672" d="M820 365h4v2h-4zM827 364h4v2h-4zM864 359h4v2h-4zM977 358h4v2h-4z"/><path fill="#F9735B" d="M962 357h4v2h-4zM955 289h4v2h-4zM670 177h4v2h-4z"/><path fill="#FE8672" d="m662 176 4 1-2 2-2-1zM640 174h4v2h-4z"/><path fill="#F9735B" d="M617 171h5v2l-5-1zM61 34h2l-1 3-3-1zM253 7h4v2h-4zM647 419h4v2l-4-1z"/><path fill="#FE8672" d="m1088 373 3 1-2 2-2-2zM992 359l4 1-4 1zM947 356l3 1-1 2h-2z"/><path fill="#F9735B" d="M939 356h4v2l-4-1zM1007 287l4 1-4 1z"/><path fill="#FE8672" d="M814 222h3l-1 3-2-1zM714 177h4v2l-4-1z"/><path fill="#F9735B" d="M537 149h4v2l-4-1zM43 48h3v2l-3 1z"/><path fill="#FE8672" d="M49 43h3v2l-3 1z"/><path fill="#F9735B" d="m636 733 4 1-3 1z"/><path fill="#FE8672" d="M241 639h3v2h-3zM449 525h2l-1 3-2-1zM475 507h3v2h-3z"/><path fill="#F9735B" d="M684 405h3v2h-3zM1051 273h3v2h-3zM1085 255h3v2h-3z"/><path fill="#FE8672" d="M771 190h3l-1 3z"/><path fill="#F9735B" d="M692 178h4v2z"/><path fill="#FE8672" d="M731 173h3v2h-3z"/><path fill="#F9735B" d="m170 457 3 1-3 1z"/><path fill="#FE8672" d="m565 455 3 1-3 1zM594 441l3 1-3 1zM1074 370l3 1-3 1zM849 361l3 1-3 1zM1032 280l3 1-3 1z"/><path fill="#F9735B" d="m465 109 3 1-3 1z"/><path fill="#FE8672" d="M852 723h2v2h-2z"/></svg>