<svg width="61" height="73" viewBox="0 0 61 73" fill="none" xmlns="http://www.w3.org/2000/svg">
<mask id="mask0_150_1575" style="mask-type:luminance" maskUnits="userSpaceOnUse" x="10" y="9" width="41" height="54">
<path d="M49.5626 33.2885C49.5626 48.2786 35.6139 58.3905 31.5803 60.9984C31.2502 61.2156 30.8783 61.3296 30.5001 61.3296C30.1218 61.3296 29.7499 61.2156 29.4199 60.9984C25.3862 58.3905 11.4376 48.2786 11.4376 33.2885C11.4376 19.8457 20.674 10.8839 30.5001 10.8839C40.6667 10.8839 49.5626 19.8457 49.5626 33.2885Z" stroke="#C0C0C0" stroke-opacity="0.25" stroke-width="2.58635"/>
<path d="M21.06 35.6364L29.8465 45.9634C30.1541 46.3249 30.3091 46.5071 30.4998 46.5071C30.6904 46.5071 30.8454 46.3279 31.153 45.9634L39.9395 35.6364C41.8407 33.4019 42.1355 29.9009 40.6435 27.2721C38.3179 23.1765 33.1355 23.3856 31.0564 27.6604L30.698 28.4013C30.6779 28.4422 30.6491 28.4762 30.6143 28.4999C30.5794 28.5235 30.54 28.536 30.4998 28.536C30.4595 28.536 30.4201 28.5235 30.3852 28.4999C30.3504 28.4762 30.3216 28.4422 30.3015 28.4013L29.9431 27.6634C27.864 23.3856 22.6816 23.1765 20.356 27.2751C18.864 29.9039 19.1614 33.4019 21.06 35.6364Z" stroke="white" stroke-width="2.58635"/>
</mask>
<g mask="url(#mask0_150_1575)">
<path d="M6.10352e-05 0.428467H61.0001V72.123H6.10352e-05V0.428467Z" fill="white"/>
</g>
</svg>
