<svg width="48" height="48" viewBox="0 0 48 48" fill="none" xmlns="http://www.w3.org/2000/svg">
<g clip-path="url(#clip0_150_1727)">
<path d="M44.5649 33.8305C44.5651 33.8116 44.5664 33.7931 44.5664 33.7742C44.5664 33.7473 44.5647 33.7208 44.5644 33.6941L44.4825 15.0338C44.4739 13.067 42.877 11.4772 40.9103 11.4772H20.1265C18.1536 11.4772 16.5542 13.0765 16.5542 15.0494V34.7561C13.421 34.883 10.9196 37.4618 10.9196 40.6261C10.9196 43.8714 13.5504 46.5022 16.7957 46.5022C20.041 46.5022 22.6718 43.8713 22.6718 40.6261C22.6718 40.5991 22.6702 40.5725 22.6698 40.5456H22.6718V20.6535H38.4488V27.904C35.3156 28.0309 32.8142 30.6098 32.8142 33.7741C32.8142 37.0194 35.445 39.6502 38.6903 39.6502C41.8072 39.6502 44.356 37.2229 44.5527 34.1556H44.5664L44.5649 33.8305Z" fill="#9781DD"/>
<path d="M17.1267 34.7598C17.0171 34.7538 16.9069 34.75 16.7957 34.75C16.5262 34.75 16.2615 34.7698 16.0017 34.8049C18.0967 35.1371 19.6984 36.9509 19.6984 39.1394C19.6984 41.5636 17.7332 43.5287 15.3091 43.5287C13.1206 43.5287 11.3068 41.9271 10.9746 39.8321C10.9394 40.092 10.9197 40.3566 10.9197 40.6261C10.9197 43.8714 13.5505 46.5022 16.7958 46.5022C20.0411 46.5022 22.6719 43.8714 22.6719 40.6261C22.6719 39.7168 22.4652 38.8557 22.0963 38.0872C22.1325 38.1308 22.1686 38.1746 22.204 38.2187H22.527V20.6535H22.842V20.3413H17.1269V34.7598H17.1267Z" fill="#8962DE"/>
<path d="M44.5644 33.6941L44.4825 15.0337C44.4739 13.0669 42.8771 11.4772 40.9103 11.4772H20.1265C19.5349 11.4772 18.9773 11.6218 18.4859 11.8765H35.8662C37.6033 11.8765 39.0137 13.343 39.0212 15.1573L39.0746 27.8446C39.6236 27.9039 40.1631 28.0319 40.6806 28.2445C40.059 28.0207 39.389 27.8981 38.6902 27.8981C38.3991 27.8981 38.1132 27.9201 37.8335 27.961C39.8559 28.3071 41.3956 30.0677 41.3956 32.1888C41.3956 34.5586 39.4746 36.4796 37.1049 36.4796C34.9836 36.4796 33.2232 34.9399 32.877 32.9174C32.8361 33.1972 32.8141 33.4831 32.8141 33.7742C32.8141 37.0195 35.4449 39.6503 38.6902 39.6503C41.9355 39.6503 44.5663 37.0195 44.5663 33.7742C44.5664 33.7473 44.5647 33.7208 44.5644 33.6941Z" fill="#8962DE"/>
<path d="M13.6264 0.652938L14.3859 2.78859C14.4184 2.88002 14.4828 2.95245 14.5641 2.98908L16.4615 3.84398C16.7295 3.96479 16.7295 4.39182 16.4615 4.51263L14.5641 5.36753C14.4828 5.40416 14.4185 5.47659 14.3859 5.56802L13.6264 7.70367C13.519 8.00541 13.1396 8.00541 13.0322 7.70367L12.2727 5.56802C12.2402 5.47659 12.1758 5.40407 12.0945 5.36753L10.1971 4.51263C9.92905 4.39182 9.92905 3.96479 10.1971 3.84398L12.0945 2.98908C12.1758 2.95245 12.2401 2.88002 12.2727 2.78859L13.0322 0.652938C13.1396 0.351202 13.5191 0.351202 13.6264 0.652938Z" fill="#C2B2EB"/>
<path d="M6.0879 14.7604L6.65135 16.3446C6.67549 16.4124 6.72322 16.4661 6.78344 16.4933L8.19096 17.1275C8.38979 17.217 8.38979 17.5338 8.19096 17.6234L6.78344 18.2576C6.72322 18.2847 6.6754 18.3384 6.65135 18.4063L6.0879 19.9905C6.00831 20.2143 5.72686 20.2143 5.64718 19.9905L5.08373 18.4063C5.05959 18.3384 5.01185 18.2846 4.95163 18.2576L3.54411 17.6234C3.34528 17.5338 3.34528 17.217 3.54411 17.1275L4.95163 16.4933C5.01185 16.4661 5.05968 16.4124 5.08373 16.3446L5.64718 14.7604C5.72686 14.5366 6.0084 14.5366 6.0879 14.7604Z" fill="#C2B2EB"/>
<path d="M26.9802 4.84381C27.1927 3.95258 26.6425 3.05783 25.7513 2.84533C24.8601 2.63283 23.9653 3.18304 23.7528 4.07427C23.5403 4.9655 24.0905 5.86026 24.9818 6.07276C25.873 6.28526 26.7677 5.73504 26.9802 4.84381Z" fill="#9781DD"/>
<path d="M4.24662 12.0252C4.64171 12.0252 4.962 11.7049 4.962 11.3099C4.962 10.9148 4.64171 10.5945 4.24662 10.5945C3.85153 10.5945 3.53125 10.9148 3.53125 11.3099C3.53125 11.7049 3.85153 12.0252 4.24662 12.0252Z" fill="#9781DD"/>
<path d="M45.4896 33.8297C45.4898 33.8111 45.491 33.7927 45.491 33.7741C45.491 33.7476 45.4893 33.7217 45.489 33.6952L45.4071 15.0296C45.3962 12.5609 43.3789 10.5525 40.9102 10.5525H20.1265C17.647 10.5525 15.6296 12.5698 15.6296 15.0493V33.9275C12.4336 34.4823 9.99496 37.2738 9.99496 40.6261C9.99496 44.376 13.0457 47.4268 16.7956 47.4268C20.5455 47.4268 23.5964 44.3761 23.5964 40.6261C23.5964 40.606 23.595 40.5861 23.5949 40.5661C23.595 40.5591 23.5964 40.5525 23.5964 40.5456V21.578H37.5241V27.0755C34.3281 27.6303 31.8894 30.4219 31.8894 33.7741C31.8894 37.524 34.9402 40.5747 38.6902 40.5747C42.2365 40.5747 45.1558 37.8459 45.4626 34.3779C45.4809 34.3044 45.4913 34.2286 45.4909 34.1514L45.4896 33.8297ZM16.7957 45.5776C14.0655 45.5776 11.8443 43.3564 11.8443 40.6261C11.8443 37.8958 14.0655 35.6746 16.7957 35.6746C19.526 35.6746 21.7473 37.8958 21.7473 40.6261C21.7473 43.3564 19.526 45.5776 16.7957 45.5776ZM22.6718 19.7288C22.1612 19.7288 21.7472 20.1428 21.7472 20.6535V35.9715C20.6527 34.8079 19.1551 34.0277 17.4789 33.8597V15.0493C17.4789 13.5894 18.6666 12.4017 20.1265 12.4017H40.9103C42.3638 12.4017 43.5515 13.5843 43.5579 15.0378L43.6195 29.0962C42.527 27.9455 41.0384 27.1746 39.3734 27.0077V20.6535C39.3734 20.1429 38.9594 19.7289 38.4488 19.7289L22.6718 19.7288ZM38.6903 38.7255C35.96 38.7255 33.7388 36.5043 33.7388 33.7741C33.7388 31.0438 35.96 28.8225 38.6903 28.8225C41.4205 28.8225 43.6417 31.0438 43.6417 33.7741C43.6417 36.5043 41.4205 38.7255 38.6903 38.7255Z" fill="#3C122C"/>
<path d="M27.1264 16.6405C26.3442 16.6405 25.5564 16.6323 24.7352 16.6159C24.2247 16.6057 23.819 16.1836 23.8292 15.6731C23.8394 15.1625 24.2645 14.7558 24.772 14.767C26.3891 14.7993 27.8745 14.7993 29.4465 14.767C29.958 14.7538 30.3795 15.1619 30.3899 15.6725C30.4004 16.1831 29.995 16.6055 29.4844 16.6159C28.6856 16.6323 27.9089 16.6405 27.1264 16.6405Z" fill="white"/>
<path d="M21.8439 16.6162H20.7766C20.2659 16.6162 19.8519 16.2023 19.8519 15.6916C19.8519 15.181 20.2659 14.767 20.7766 14.767H21.8439C22.3546 14.767 22.7686 15.181 22.7686 15.6916C22.7686 16.2023 22.3546 16.6162 21.8439 16.6162Z" fill="white"/>
</g>
<defs>
<clipPath id="clip0_150_1727">
<rect width="47" height="47" fill="white" transform="translate(0.943054 0.42688)"/>
</clipPath>
</defs>
</svg>
