<svg width="49" height="49" viewBox="0 0 49 49" fill="none" xmlns="http://www.w3.org/2000/svg">
<g clip-path="url(#clip0_150_1584)">
<path d="M43.9941 13.4892C43.8307 9.82769 40.8115 6.90906 37.1097 6.90906C34.1756 6.90906 31.6714 8.74329 30.6769 11.327C29.6823 8.74329 27.1781 6.90906 24.2441 6.90906C20.608 6.90906 17.6317 9.72528 17.3722 13.2951C16.1498 20.3956 30.4303 31.9199 30.4303 31.9199C30.4303 31.9199 45.1177 20.423 43.9941 13.4892Z" fill="#E8C2D8"/>
<path d="M43.9938 13.4892C43.8305 9.82769 40.8112 6.90906 37.1094 6.90906C35.9135 6.90906 34.2093 8.52321 33.2293 9.05913C37.2516 7.73677 39.1204 10.152 39.2511 13.0432C39.8477 16.6775 35.1574 21.5821 31.6865 24.7626C29.8167 26.4761 27.371 26.4039 25.35 24.8728C23.5317 23.4953 21.7726 22.0892 20.2808 19.9689C20.6336 21.1305 20.628 21.5034 21.1798 22.5841C25.0521 27.579 30.43 31.9199 30.43 31.9199C30.43 31.9199 45.1175 20.423 43.9938 13.4892Z" fill="#D392D8"/>
<path d="M1.20647 30.0589L3.45774 28.621C3.45774 28.621 3.34737 26.7874 4.45789 24.8888C5.91833 22.3918 8.35916 20.9618 12.316 21.4119C16.2728 21.8619 21.8264 23.4349 24.1124 24.1072C26.354 24.7665 28.6301 25.804 28.0242 28.3266C27.4804 30.5907 25.5207 30.945 22.3575 30.1768C22.3575 30.1768 17.8035 29.2102 17.3055 29.3328C14.1697 30.1046 19.0658 33.6361 20.2138 34.3249C22.2394 35.5402 28.6406 38.5942 30.0858 38.6869C31.531 38.7796 43.6329 34.6411 43.6329 34.6411C45.7142 34.1288 46.7594 35.6859 47.2036 36.9562C47.6478 38.2265 47.5065 40.2631 45.4983 41.1252C45.4983 41.1252 33.9975 46.1639 30.4608 46.2065C29.1547 46.2223 17.3596 43.4026 12.0136 41.3472L1.21995 47.2762" fill="#A07575"/>
<path d="M47.2035 36.9562C46.77 35.7168 46.2589 34.6949 44.277 35.0981C44.586 36.1315 44.7403 37.9468 43.0526 38.5672C43.0526 38.5672 32.9267 42.5575 29.6865 42.5464C28.6204 42.5428 18.9315 39.885 13.348 38.0794C12.153 37.6929 10.8535 37.8027 9.74093 38.3852L1.21476 42.8495L1.2245 47.5438L12.0134 41.3474C17.3593 43.4027 29.1544 46.2224 30.4606 46.2067C33.9973 46.1641 45.498 41.1253 45.498 41.1253C47.5064 40.2631 47.6476 38.2264 47.2035 36.9562Z" fill="#925873"/>
<path d="M13.3124 0.466645L13.9123 2.15325C13.9379 2.22543 13.9888 2.28272 14.053 2.31155L15.5514 2.98668C15.7631 3.08207 15.7631 3.41935 15.5514 3.51474L14.053 4.18987C13.9888 4.2188 13.9379 4.27599 13.9123 4.34817L13.3124 6.03477C13.2277 6.27301 12.928 6.27301 12.8432 6.03477L12.2433 4.34817C12.2177 4.27599 12.1668 4.2187 12.1026 4.18987L10.6042 3.51474C10.3925 3.41935 10.3925 3.08207 10.6042 2.98668L12.1026 2.31155C12.1668 2.28262 12.2177 2.22543 12.2433 2.15325L12.8432 0.466645C12.9279 0.228403 13.2277 0.228403 13.3124 0.466645Z" fill="#E9C3D9"/>
<path d="M30.7962 2.84024C30.7962 3.26093 30.4552 3.60187 30.0346 3.60187C29.6139 3.60187 29.273 3.26084 29.273 2.84024C29.273 2.41964 29.614 2.07861 30.0346 2.07861C30.4552 2.07861 30.7962 2.41964 30.7962 2.84024Z" fill="#D88ABA"/>
<path d="M8.33933 13.0097C8.48936 12.09 7.86539 11.2227 6.94565 11.0727C6.02592 10.9227 5.15871 11.5467 5.00868 12.4664C4.85865 13.3861 5.48262 14.2533 6.40236 14.4034C7.32209 14.5534 8.1893 13.9294 8.33933 13.0097Z" fill="#D88ABA"/>
<path d="M23.2032 19.5935C22.8943 19.5935 22.5917 19.4416 22.4119 19.1626C21.6423 17.9695 21.1782 16.8391 20.9933 15.7068C20.9095 15.1941 21.2573 14.7105 21.77 14.6268C22.2828 14.5431 22.7662 14.8908 22.85 15.4035C22.9924 16.2754 23.3663 17.1715 23.9929 18.1429C24.2745 18.5794 24.1489 19.1617 23.7123 19.4433C23.5545 19.5449 23.3778 19.5935 23.2032 19.5935Z" fill="white"/>
<path d="M22.6845 12.8C22.4988 12.8 22.3113 12.7451 22.1474 12.6309C21.7212 12.3338 21.6165 11.7475 21.9136 11.3213C22.1637 10.9627 22.4563 10.6341 22.7835 10.3447C23.1728 10.0006 23.7672 10.0371 24.1113 10.4263C24.4554 10.8154 24.4189 11.41 24.0297 11.7541C23.8143 11.9446 23.6216 12.1609 23.4569 12.3972C23.2742 12.6595 22.9818 12.8 22.6845 12.8Z" fill="white"/>
<path d="M48.0914 36.6457C47.2708 34.2988 45.52 33.2081 43.408 33.7276C43.3812 33.7343 43.3546 33.7421 43.3285 33.751C37.5741 35.7189 31.0791 37.7483 30.152 37.7483C30.1501 37.7483 30.1478 37.7482 30.1459 37.7482C28.9928 37.6742 22.8203 34.7918 20.6976 33.5182C20.2825 33.2692 19.3721 32.639 18.5651 31.9236C17.629 31.0938 17.3085 30.5657 17.2324 30.3483C17.2797 30.3247 17.3544 30.2939 17.4674 30.2627C17.9806 30.2716 20.2586 30.6934 22.1487 31.0942C24.5283 31.6704 26.1768 31.6087 27.3363 30.9005C27.428 30.8444 27.5158 30.784 27.6006 30.7202C28.8845 31.8784 29.7667 32.5933 29.8393 32.6519C30.0115 32.7909 30.2208 32.8604 30.4301 32.8604C30.6347 32.8604 30.8394 32.7939 31.0098 32.6605C31.162 32.5413 34.778 29.6995 38.3172 25.9504C43.1872 20.7914 45.412 16.5672 44.9309 13.3935C44.717 9.22539 41.2917 5.96826 37.1093 5.96826C35.495 5.96826 33.9448 6.45579 32.6263 7.37824C31.8589 7.91511 31.2014 8.57563 30.6765 9.33127C30.1514 8.57563 29.4939 7.9152 28.7265 7.37824C27.408 6.45589 25.8578 5.96826 24.2435 5.96826C22.2518 5.96826 20.3538 6.71678 18.8992 8.07593C17.4635 9.41748 16.5902 11.2291 16.437 13.1813C16.0504 15.5399 17.0719 18.4503 19.4761 21.8664C17.1145 21.2752 14.5351 20.7175 12.422 20.4771C8.39402 20.0189 5.4415 21.3434 3.64565 24.4137C2.76973 25.9113 2.56622 27.3769 2.52409 28.1393L0.975283 29.2771C0.556557 29.5847 0.466409 30.1734 0.773923 30.5921C1.08153 31.0109 1.67026 31.1009 2.08889 30.7935L4.01449 29.3793C4.27192 29.1902 4.41608 28.8881 4.39689 28.5693C4.39605 28.5534 4.32865 26.9728 5.26973 25.3639C6.67447 22.9622 8.94427 21.9752 12.2095 22.3467C15.8738 22.7635 21.0736 24.1942 23.847 25.0099C26.9527 25.9233 27.3973 26.9087 27.1095 28.1072C26.926 28.8712 26.5912 29.1511 26.3554 29.2952C25.6677 29.7152 24.3973 29.7044 22.5794 29.263C22.5705 29.2609 22.5617 29.2588 22.5527 29.2569C17.7879 28.2455 17.2741 28.3722 17.0805 28.4197C15.7338 28.7511 15.4189 29.555 15.3513 30.0047C15.2113 30.9337 15.7993 31.9581 17.2018 33.2283C18.2021 34.1344 19.2928 34.8695 19.7297 35.1316C21.4061 36.1375 28.2231 39.5102 30.0255 39.6258C30.376 39.6486 31.1057 39.6951 37.6871 37.595C40.6613 36.646 43.515 35.6752 43.8948 35.5458C45.0118 35.2874 45.8259 35.8667 46.3155 37.2668C46.3464 37.355 47.0487 39.436 45.1207 40.2636C41.9702 41.6438 33.1929 45.2329 30.4496 45.266C30.4485 45.266 30.4475 45.266 30.4464 45.266C29.2707 45.266 17.7145 42.5314 12.3509 40.4692C12.0831 40.3662 11.7825 40.3912 11.5352 40.5372L1.49277 46.4662C1.0454 46.7304 0.896836 47.3072 1.16101 47.7545C1.33653 48.0518 1.65004 48.2172 1.97187 48.2171C2.13438 48.2171 2.29914 48.1749 2.4492 48.0863L12.1037 42.3864C17.5978 44.4139 28.9627 47.1473 30.4582 47.1472H30.472C34.1575 47.1028 45.3989 42.1957 45.8692 41.9895C48.2045 40.9871 48.7549 38.5425 48.0914 36.6457ZM24.3779 23.2048C23.8158 23.0395 23.1547 22.8492 22.428 22.6474C19.3376 18.8362 17.9151 15.6845 18.299 13.4546C18.3042 13.4244 18.308 13.3938 18.3101 13.3632C18.5349 10.2715 21.1412 7.84967 24.2437 7.84967C26.6879 7.84967 28.9204 9.38285 29.7987 11.6648C29.9386 12.028 30.2875 12.2676 30.6766 12.2676C31.0658 12.2676 31.4147 12.028 31.5545 11.6648C32.4329 9.38285 34.6653 7.84967 37.1095 7.84967C40.3008 7.84967 42.912 10.3453 43.0542 13.5311C43.0559 13.5675 43.0595 13.6037 43.0654 13.6396C43.4757 16.1717 41.3659 19.9768 36.9639 24.6435C34.3429 27.4222 31.6106 29.7416 30.4396 30.703C30.0349 30.3598 29.4412 29.8462 28.7311 29.2023C28.8133 28.9966 28.8831 28.7784 28.9388 28.5463C29.2952 27.0625 28.8825 25.7675 27.7452 24.8013C26.7779 23.9797 25.4375 23.5165 24.3779 23.2048Z" fill="#3C122C"/>
<path d="M33.3225 22.5798C33.0108 22.5798 32.7581 22.327 32.7581 22.0154V20.8773C32.7581 20.5655 33.0109 20.3129 33.3225 20.3129C33.6342 20.3129 33.8869 20.5656 33.8869 20.8773V22.0154C33.8869 22.327 33.6342 22.5798 33.3225 22.5798Z" fill="#3C122C"/>
<path d="M35.9961 20.1386C35.6844 20.1386 35.4317 19.8859 35.4317 19.5742V18.4361C35.4317 18.1244 35.6845 17.8717 35.9961 17.8717C36.3078 17.8717 36.5605 18.1245 36.5605 18.4361V19.5742C36.5606 19.8859 36.3078 20.1386 35.9961 20.1386Z" fill="#3C122C"/>
<path d="M13.0962 25.8351C13.0551 25.8351 13.0137 25.8324 12.9719 25.8269C12.5981 25.7776 12.2347 25.7517 11.8919 25.75C11.3723 25.7474 10.9533 25.3241 10.956 24.8046C10.9586 24.2851 11.3848 23.8646 11.9013 23.8687C12.3231 23.8708 12.7661 23.9022 13.2182 23.9618C13.7332 24.0299 14.0956 24.5025 14.0276 25.0176C13.9652 25.4907 13.561 25.8351 13.0962 25.8351Z" fill="white"/>
<path d="M7.09977 28.4917C7.0128 28.4917 6.92443 28.4795 6.83672 28.4541C6.33786 28.3091 6.05103 27.7871 6.19604 27.2882C6.48314 26.3007 7.23784 25.4385 8.43926 24.7256C8.88607 24.4605 9.46318 24.6077 9.72829 25.0545C9.9935 25.5013 9.84624 26.0784 9.39943 26.3435C8.62199 26.8048 8.15206 27.2994 8.00265 27.8134C7.88311 28.2245 7.50745 28.4917 7.09977 28.4917Z" fill="white"/>
</g>
<defs>
<clipPath id="clip0_150_1584">
<rect width="47.9293" height="47.9293" fill="white" transform="translate(0.507416 0.28772)"/>
</clipPath>
</defs>
</svg>
