<svg width="49" height="49" viewBox="0 0 49 49" fill="none" xmlns="http://www.w3.org/2000/svg">
<g clip-path="url(#clip0_150_1616)">
<path d="M37.2395 10.7739H12.6145C9.21654 10.7739 6.46188 13.5286 6.46188 16.9266V41.5516C6.46188 44.9496 9.21654 47.7042 12.6145 47.7042H37.2395C40.6375 47.7042 43.3922 44.9496 43.3922 41.5516V16.9266C43.3922 13.5286 40.6375 10.7739 37.2395 10.7739Z" fill="#8BB6EF"/>
<path d="M37.2395 10.7739H32.173C35.0117 10.7739 37.3129 13.075 37.3129 15.9138V36.4851C37.3129 39.3236 35.0117 41.6249 32.173 41.6249H11.6016C8.76298 41.6249 6.46188 39.3237 6.46188 36.4851V41.5516C6.46188 44.9496 9.21654 47.7042 12.6145 47.7042H37.2395C40.6375 47.7042 43.3922 44.9496 43.3922 41.5516V16.9266C43.3922 13.5286 40.6375 10.7739 37.2395 10.7739Z" fill="#8388EF"/>
<path d="M37.1018 10.7739H24.927V16.3561C24.927 16.9446 24.4499 17.4217 23.8613 17.4217H19.9017C19.3131 17.4217 18.836 17.8988 18.836 18.4874V22.3163C18.836 22.9048 19.3131 23.382 19.9017 23.382H23.8613C24.4499 23.382 24.927 23.8591 24.927 24.4476V29.3422H29.9522C30.5408 29.3422 31.0179 28.8651 31.0179 28.2766V24.4476C31.0179 23.8592 31.495 23.382 32.0836 23.382H36.0432C36.6317 23.382 37.1088 23.8591 37.1088 24.4476V28.2766C37.1088 28.8651 37.5859 29.3422 38.1745 29.3422H43.3922V17.0644C43.3922 13.5903 40.5758 10.7739 37.1018 10.7739Z" fill="#B2E7F1"/>
<path d="M37.1088 28.2764V24.4475C37.1088 23.859 36.6317 23.3818 36.0431 23.3818H32.0835C31.4949 23.3818 31.0178 23.8589 31.0178 24.4475V28.2764C31.0178 28.865 30.5407 29.3421 29.9522 29.3421H24.9269V34.2366C24.9269 34.8251 25.404 35.3021 25.9925 35.3021H29.9522C30.5407 35.3021 31.0178 35.7792 31.0178 36.3678V40.1967C31.0178 40.7854 30.5407 41.2624 29.9522 41.2624H25.9925C25.404 41.2624 24.9269 41.7395 24.9269 42.3281V47.7041H37.1016C40.5757 47.7041 43.392 44.8879 43.392 41.4138V29.3421H38.1742C37.5858 29.3421 37.1088 28.865 37.1088 28.2764Z" fill="#F7C4DB"/>
<path d="M12.7157 30.3822V34.2111C12.7157 34.7996 13.1928 35.2767 13.7813 35.2767H17.7409C18.3295 35.2767 18.8066 34.7996 18.8066 34.2111V30.3822C18.8066 29.7936 19.2837 29.3165 19.8723 29.3165H24.8975V24.422C24.8975 23.8336 24.4204 23.3565 23.8319 23.3565H19.8723C19.2837 23.3565 18.8066 22.8794 18.8066 22.2908V18.4619C18.8066 17.8732 19.2837 17.3962 19.8723 17.3962H23.8319C24.4204 17.3962 24.8975 16.9191 24.8975 16.3306V10.9545H12.7226C9.2485 10.9545 6.43225 13.7707 6.43225 17.2448V29.3164H11.65C12.2385 29.3164 12.7157 29.7935 12.7157 30.3822Z" fill="#FEF2A8"/>
<path d="M37.3128 15.9138V28.9017C37.5064 29.1681 37.8198 29.3421 38.1744 29.3421H43.3921V17.0644C43.3921 13.5903 40.5758 10.7739 37.1017 10.7739H32.1729C35.0116 10.774 37.3128 13.0751 37.3128 15.9138Z" fill="#A7ADF1"/>
<path d="M43.3922 41.4138V29.3422H38.1745C37.8198 29.3422 37.5065 29.1682 37.3128 28.9017V36.485C37.3128 39.3236 35.0117 41.6248 32.173 41.6248H25.1936C25.0282 41.8125 24.9271 42.0582 24.9271 42.3281V47.7042H37.1018C40.5758 47.7042 43.3922 44.888 43.3922 41.4138Z" fill="#E893DB"/>
<path d="M37.2395 9.8219H12.6145C8.69698 9.8219 5.50977 13.009 5.50977 16.9266V41.5517C5.50977 45.4693 8.69689 48.6564 12.6145 48.6564H37.2395C41.1571 48.6564 44.3443 45.4693 44.3443 41.5517V16.9266C44.3443 13.009 41.1571 9.8219 37.2395 9.8219ZM42.44 16.9266V28.7708H38.1743C37.9017 28.7708 37.68 28.5491 37.68 28.2765V24.4476C37.68 23.545 36.9457 22.8107 36.0432 22.8107H32.0835C31.181 22.8107 30.4466 23.545 30.4466 24.4476V28.2765C30.4466 28.5491 30.2249 28.7708 29.9523 28.7708H25.4983V24.4475C25.4983 23.5449 24.764 22.8106 23.8614 22.8106H19.9017C19.6291 22.8106 19.4074 22.5889 19.4074 22.3163V18.4874C19.4074 18.2148 19.6291 17.9931 19.9017 17.9931H23.8614C24.764 17.9931 25.4983 17.2587 25.4983 16.3562V11.7261H37.2395C40.1072 11.7261 42.44 14.059 42.44 16.9266ZM12.6145 11.7261H24.3558V16.3561C24.3558 16.6287 24.134 16.8504 23.8614 16.8504H19.9017C18.9992 16.8504 18.2648 17.5848 18.2648 18.4873V22.3162C18.2648 23.2188 18.9992 23.953 19.9017 23.953H23.8614C24.134 23.953 24.3558 24.1747 24.3558 24.4474V28.7707H19.9017C18.9992 28.7707 18.2648 29.5051 18.2648 30.4076V34.2365C18.2648 34.5091 18.0431 34.7308 17.7706 34.7308H13.8109C13.5382 34.7308 13.3165 34.5091 13.3165 34.2365V30.4076C13.3165 29.5051 12.5822 28.7707 11.6796 28.7707H7.41402V16.9266C7.41402 14.059 9.74689 11.7261 12.6145 11.7261ZM7.41402 41.5516V29.9135H11.6796C11.9523 29.9135 12.174 30.1352 12.174 30.4078V34.2367C12.174 35.1392 12.9083 35.8735 13.8109 35.8735H17.7706C18.6731 35.8735 19.4074 35.1392 19.4074 34.2367V30.4078C19.4074 30.1352 19.6291 29.9135 19.9017 29.9135H24.3558V34.2367C24.3558 35.1393 25.0901 35.8736 25.9926 35.8736H29.9523C30.2249 35.8736 30.4466 36.0953 30.4466 36.368V40.1969C30.4466 40.4695 30.2249 40.6912 29.9523 40.6912H25.9926C25.0901 40.6912 24.3558 41.4256 24.3558 42.3281V46.7521H12.6145C9.74689 46.7521 7.41402 44.4191 7.41402 41.5516ZM37.2395 46.7521H25.4983V42.3281C25.4983 42.0555 25.72 41.8338 25.9926 41.8338H29.9523C30.8548 41.8338 31.5891 41.0994 31.5891 40.1969V36.368C31.5891 35.4654 30.8548 34.7311 29.9523 34.7311H25.9926C25.72 34.7311 25.4983 34.5094 25.4983 34.2367V29.9135H29.9523C30.8548 29.9135 31.5891 29.1791 31.5891 28.2766V24.4477C31.5891 24.175 31.8109 23.9533 32.0835 23.9533H36.0432C36.3157 23.9533 36.5375 24.175 36.5375 24.4477V28.2766C36.5375 29.1791 37.2718 29.9135 38.1743 29.9135H42.44V41.5517C42.44 44.4191 40.1072 46.7521 37.2395 46.7521Z" fill="#440A29"/>
<path d="M39.0914 38.7056C38.7759 38.7056 38.5202 38.9613 38.5202 39.2768V40.3768C38.5202 40.6922 38.7759 40.9481 39.0914 40.9481C39.4069 40.9481 39.6627 40.6923 39.6627 40.3768V39.2768C39.6626 38.9613 39.4069 38.7056 39.0914 38.7056Z" fill="#440A29"/>
<path d="M35.5662 33.4271C35.2507 33.4271 34.9949 33.683 34.9949 33.9984V35.0984C34.9949 35.4139 35.2507 35.6697 35.5662 35.6697C35.8817 35.6697 36.1374 35.414 36.1374 35.0984V33.9984C36.1375 33.6829 35.8818 33.4271 35.5662 33.4271Z" fill="#440A29"/>
<path d="M34.6235 42.0219C34.308 42.0219 34.0522 42.2776 34.0522 42.5931V43.6931C34.0522 44.0086 34.308 44.2644 34.6235 44.2644C34.9389 44.2644 35.1948 44.0087 35.1948 43.6931V42.5931C35.1947 42.2777 34.9389 42.0219 34.6235 42.0219Z" fill="#440A29"/>
<path d="M10.4587 24.1888C9.93522 24.1888 9.5096 23.7659 9.50669 23.2418C9.505 22.9234 9.50285 22.605 9.50069 22.2867C9.49506 21.4603 9.48935 20.6058 9.49169 19.7631C9.4931 19.2372 9.91966 18.8099 10.4464 18.8136C10.9722 18.815 11.3973 19.2425 11.3959 19.7684C11.3936 20.602 11.3994 21.4519 11.4049 22.2737C11.4071 22.5931 11.4093 22.9124 11.4109 23.2316C11.4138 23.7573 10.9897 24.1859 10.464 24.1888C10.4622 24.1888 10.4604 24.1888 10.4587 24.1888Z" fill="white"/>
<path d="M10.7104 17.209C10.6108 17.209 10.5096 17.1931 10.4098 17.16C9.91087 16.9941 9.64096 16.455 9.8068 15.9561C10.0773 15.143 10.634 14.4327 11.4167 13.9018C11.8516 13.6065 12.4439 13.72 12.739 14.1553C13.0342 14.5904 12.9208 15.1825 12.4855 15.4776C12.1835 15.6825 11.787 16.0361 11.6137 16.5571C11.481 16.9564 11.1093 17.209 10.7104 17.209Z" fill="white"/>
<path d="M4.80883 1.83984L5.61752 4.11384C5.65211 4.21115 5.72064 4.28831 5.80718 4.32731L7.82749 5.23753C8.11296 5.36615 8.11296 5.82093 7.82749 5.94946L5.80718 6.85968C5.72064 6.89868 5.65211 6.97584 5.61752 7.07315L4.80883 9.34706C4.69455 9.66834 4.29058 9.66834 4.1763 9.34706L3.36761 7.07315C3.33302 6.97584 3.26439 6.89868 3.17796 6.85968L1.15764 5.94946C0.872175 5.82084 0.872175 5.36615 1.15764 5.23753L3.17796 4.32731C3.26449 4.28831 3.33302 4.21115 3.36761 4.11384L4.1763 1.83984C4.29058 1.51856 4.69455 1.51856 4.80883 1.83984Z" fill="#B2E7F1"/>
<path d="M48.9547 10.53C49.0512 9.55959 48.3428 8.69466 47.3724 8.59811C46.402 8.50156 45.5371 9.20994 45.4406 10.1803C45.344 11.1507 46.0524 12.0156 47.0228 12.1122C47.9932 12.2088 48.8581 11.5004 48.9547 10.53Z" fill="#8BB6EF"/>
<path d="M13.6688 1.89225C13.6688 2.30522 13.334 2.6401 12.921 2.6401C12.5079 2.6401 12.1731 2.30532 12.1731 1.89225C12.1731 1.47919 12.5079 1.14441 12.921 1.14441C13.334 1.1445 13.6688 1.47928 13.6688 1.89225Z" fill="#8BB6EF"/>
<path d="M39.3344 1.31338L39.9343 3.00013C39.96 3.07232 40.0108 3.1296 40.075 3.15847L41.5737 3.83366C41.7854 3.929 41.7854 4.26641 41.5737 4.36175L40.075 5.03694C40.0108 5.06582 39.96 5.1231 39.9343 5.19528L39.3344 6.88203C39.2496 7.12035 38.9499 7.12035 38.8652 6.88203L38.2653 5.19528C38.2396 5.123 38.1888 5.06582 38.1246 5.03694L36.6259 4.36175C36.4142 4.26641 36.4142 3.929 36.6259 3.83366L38.1246 3.15847C38.1887 3.1296 38.2396 3.07232 38.2653 3.00013L38.8652 1.31338C38.9499 1.07507 39.2496 1.07507 39.3344 1.31338Z" fill="#B2E7F1"/>
</g>
<defs>
<clipPath id="clip0_150_1616">
<rect width="48" height="48" fill="white" transform="translate(0.943298 0.895386)"/>
</clipPath>
</defs>
</svg>
