<svg width="48" height="48" viewBox="0 0 48 48" fill="none" xmlns="http://www.w3.org/2000/svg">
<path d="M19.5936 46.8127H5.68045C3.58675 46.8127 1.88951 45.1155 1.88951 43.0218V29.1087C1.88951 27.015 3.58675 25.3177 5.68045 25.3177H19.5935C21.6872 25.3177 23.3844 27.015 23.3844 29.1087V43.0217C23.3845 45.1154 21.6872 46.8127 19.5936 46.8127Z" fill="#78EAC4"/>
<path d="M19.5936 25.3177H15.4916C17.1002 25.3177 18.4042 26.6218 18.4042 28.2304V38.9198C18.4042 40.5284 17.1003 41.8325 15.4916 41.8325H4.80214C3.19358 41.8325 1.88951 40.5284 1.88951 38.9198V43.0217C1.88951 45.1154 3.58675 46.8126 5.68045 46.8126H19.5935C21.6872 46.8126 23.3844 45.1154 23.3844 43.0217V29.1087C23.3845 27.015 21.6872 25.3177 19.5936 25.3177Z" fill="#71AFC4"/>
<path d="M41.0884 46.8127H27.1754C25.0817 46.8127 23.3845 45.1155 23.3845 43.0218V29.1087C23.3845 27.015 25.0817 25.3177 27.1754 25.3177H41.0884C43.1821 25.3177 44.8794 27.015 44.8794 29.1087V43.0217C44.8794 45.1154 43.1821 46.8127 41.0884 46.8127Z" fill="#F7C4DB"/>
<path d="M41.1642 25.3177H37.0623C38.6709 25.3177 39.9749 26.6218 39.9749 28.2304V38.9198C39.9749 40.5284 38.6709 41.8325 37.0623 41.8325H26.3728C24.7643 41.8325 23.4602 40.5284 23.4602 38.9198V43.0217C23.4602 45.1154 25.1575 46.8126 27.2512 46.8126H41.1642C43.2579 46.8126 44.9551 45.1154 44.9551 43.0217V29.1087C44.9551 27.015 43.2579 25.3177 41.1642 25.3177Z" fill="#E893DB"/>
<path d="M30.4168 25.297H16.5037C14.41 25.297 12.7127 23.5997 12.7127 21.506V7.59294C12.7127 5.49923 14.41 3.802 16.5037 3.802H30.4167C32.5104 3.802 34.2076 5.49923 34.2076 7.59294V21.5059C34.2077 23.5997 32.5104 25.297 30.4168 25.297Z" fill="#FFE266"/>
<path d="M30.4168 3.802H26.3148C27.9234 3.802 29.2275 5.10607 29.2275 6.71462V17.4041C29.2275 19.0127 27.9235 20.3167 26.3148 20.3167H15.6254C14.0168 20.3167 12.7127 19.0127 12.7127 17.4041V21.5059C12.7127 23.5997 14.41 25.2969 16.5037 25.2969H30.4167C32.5104 25.2969 34.2076 23.5997 34.2076 21.5059V7.59303C34.2077 5.49933 32.5104 3.802 30.4168 3.802Z" fill="#EFAA66"/>
<path d="M18.3603 43.4629H6.91374C5.98898 43.4629 5.23927 42.7132 5.23927 41.7885V30.3419C5.23927 29.4172 5.98898 28.6675 6.91374 28.6675H18.3603C19.285 28.6675 20.0347 29.4172 20.0347 30.3419V41.7885C20.0347 42.7132 19.285 43.4629 18.3603 43.4629Z" fill="#FFDCB6"/>
<path d="M18.4042 28.6697V38.9198C18.4042 40.5284 17.1003 41.8324 15.4916 41.8324H5.24148C5.26498 42.7367 6.00376 43.4629 6.91374 43.4629H18.3603C19.285 43.4629 20.0347 42.7132 20.0347 41.7885V30.3419C20.0347 29.4321 19.3084 28.6933 18.4042 28.6697Z" fill="#EFA5B6"/>
<path d="M39.8551 43.4629H28.4086C27.4839 43.4629 26.7342 42.7132 26.7342 41.7885V30.3419C26.7342 29.4172 27.4839 28.6675 28.4086 28.6675H39.8551C40.7799 28.6675 41.5296 29.4172 41.5296 30.3419V41.7885C41.5296 42.7132 40.78 43.4629 39.8551 43.4629Z" fill="#FFDCB6"/>
<path d="M39.9749 28.6736V38.9199C39.9749 40.5284 38.671 41.8325 37.0623 41.8325H26.7365C26.76 42.7368 27.4987 43.463 28.4087 43.463H39.8552C40.78 43.463 41.5297 42.7133 41.5297 41.7885V30.342C41.5296 29.4576 40.8436 28.7352 39.9749 28.6736Z" fill="#EFA5B6"/>
<path d="M29.1835 21.9472H17.737C16.8122 21.9472 16.0625 21.1975 16.0625 20.2727V8.8262C16.0625 7.90144 16.8122 7.15173 17.737 7.15173H29.1835C30.1082 7.15173 30.8579 7.90144 30.8579 8.8262V20.2727C30.8579 21.1975 30.1082 21.9472 29.1835 21.9472Z" fill="#FFDCB6"/>
<path d="M29.2274 7.15393V17.4041C29.2274 19.0127 27.9235 20.3167 26.3148 20.3167H16.0647C16.0883 21.2209 16.827 21.9472 17.737 21.9472H29.1835C30.1082 21.9472 30.8579 21.1975 30.8579 20.2727V8.82619C30.8579 7.9163 30.1317 7.17752 29.2274 7.15393Z" fill="#EFA5B6"/>
<path d="M18.3603 28.1036H6.91374C5.67944 28.1036 4.67537 29.1078 4.67537 30.342V41.7885C4.67537 43.0227 5.67954 44.0269 6.91374 44.0269H18.3603C19.5945 44.0269 20.5986 43.0227 20.5986 41.7885V30.342C20.5986 29.1078 19.5945 28.1036 18.3603 28.1036ZM19.4708 41.7885C19.4708 42.4009 18.9726 42.8991 18.3603 42.8991H6.91374C6.30137 42.8991 5.80319 42.4009 5.80319 41.7885V30.342C5.80319 29.7296 6.30146 29.2315 6.91374 29.2315H18.3603C18.9726 29.2315 19.4708 29.7296 19.4708 30.342V41.7885Z" fill="#440A29"/>
<path d="M41.0884 24.378H34.1725C34.7834 23.581 35.1475 22.5855 35.1475 21.5062V7.59306C35.1475 4.98446 33.0253 2.8623 30.4168 2.8623H16.5037C13.8951 2.8623 11.7728 4.98446 11.7728 7.59306V21.5061C11.7728 22.5855 12.137 23.581 12.7478 24.3779H5.68036C3.07177 24.3779 0.949516 26.5001 0.949516 29.1088V43.0218C0.9497 45.6305 3.07186 47.7526 5.68054 47.7526H19.5936C21.1432 47.7526 22.521 47.0037 23.3845 45.8489C24.2478 47.0037 25.6258 47.7526 27.1754 47.7526H41.0884C43.6969 47.7526 45.8192 45.6305 45.8192 43.0218V29.1088C45.8192 26.5002 43.6969 24.378 41.0884 24.378ZM13.6526 7.59306C13.6526 6.02094 14.9316 4.74194 16.5037 4.74194H30.4167C31.9888 4.74194 33.2678 6.02094 33.2678 7.59306V21.5061C33.2678 23.0782 31.9888 24.3572 30.4167 24.3572H16.5037C14.9316 24.3572 13.6526 23.0782 13.6526 21.5061V7.59306ZM23.4196 26.2369C23.408 26.252 23.3958 26.2666 23.3844 26.2818C23.373 26.2666 23.3608 26.2521 23.3492 26.2369H23.4196ZM19.5936 45.873H5.68054C4.10843 45.873 2.82942 44.594 2.82942 43.0219V29.1088C2.82942 27.5367 4.10843 26.2577 5.68054 26.2577H19.5936C21.1657 26.2577 22.4447 27.5367 22.4447 29.1088V43.0218C22.4446 44.594 21.1657 45.873 19.5936 45.873ZM43.9396 43.0218C43.9396 44.5939 42.6605 45.8729 41.0884 45.8729H27.1754C25.6033 45.8729 24.3243 44.5939 24.3243 43.0218V29.1088C24.3243 27.5367 25.6033 26.2577 27.1754 26.2577H41.0884C42.6605 26.2577 43.9396 27.5367 43.9396 29.1088V43.0218Z" fill="#440A29"/>
<path d="M39.8551 28.1036H28.4087C27.1744 28.1036 26.1703 29.1078 26.1703 30.342V41.7885C26.1703 43.0227 27.1744 44.0269 28.4087 44.0269H39.8552C41.0895 44.0269 42.0936 43.0227 42.0936 41.7885V30.342C42.0935 29.1078 41.0894 28.1036 39.8551 28.1036ZM40.9657 41.7885C40.9657 42.4009 40.4675 42.8991 39.8551 42.8991H28.4087C27.7963 42.8991 27.2982 42.4009 27.2982 41.7885V30.342C27.2982 29.7296 27.7963 29.2315 28.4087 29.2315H39.8552C40.4676 29.2315 40.9658 29.7296 40.9658 30.342V41.7885H40.9657Z" fill="#440A29"/>
<path d="M17.737 22.5113H29.1835C30.4178 22.5113 31.4219 21.5071 31.4219 20.2729V8.82639C31.4219 7.59218 30.4178 6.58801 29.1835 6.58801H17.737C16.5028 6.58801 15.4986 7.59218 15.4986 8.82639V20.2729C15.4986 21.5071 16.5028 22.5113 17.737 22.5113ZM16.6264 8.82639C16.6264 8.21401 17.1246 7.71583 17.737 7.71583H29.1835C29.7959 7.71583 30.294 8.21401 30.294 8.82639V20.2729C30.294 20.8853 29.7959 21.3835 29.1835 21.3835H17.737C17.1246 21.3835 16.6264 20.8853 16.6264 20.2729V8.82639Z" fill="#440A29"/>
<path d="M13.7212 31.3426C13.7179 31.3341 13.7146 31.3255 13.7111 31.317C13.5339 30.886 13.1185 30.6078 12.6526 30.6078C12.6522 30.6078 12.6519 30.6078 12.6515 30.6078C12.1852 30.6082 11.7697 30.8873 11.5932 31.319C11.5902 31.3261 11.5875 31.3333 11.5847 31.3404L8.19174 40.2488C8.00695 40.7338 8.25049 41.2768 8.73554 41.4616C9.22069 41.6464 9.76358 41.4028 9.94837 40.9178L10.5629 39.3044H14.7168L15.3247 40.9151C15.4667 41.2915 15.8244 41.5234 16.2041 41.5234C16.3144 41.5233 16.4266 41.5037 16.5358 41.4625C17.0214 41.2792 17.2666 40.7369 17.0833 40.2513L13.7212 31.3426ZM11.2787 37.4247L12.6493 33.8261L14.0074 37.4247H11.2787Z" fill="#440A29"/>
<path d="M36.4329 35.4101C36.8003 34.91 37.018 34.2934 37.018 33.6266C37.018 31.9619 35.6637 30.6077 33.9991 30.6077H31.3744C30.8554 30.6077 30.4346 31.0285 30.4346 31.5475V35.7082V35.7149V40.5831C30.4346 40.8331 30.5342 41.0728 30.7113 41.2492C30.8876 41.4246 31.126 41.523 31.3745 41.523H31.3787C31.4029 41.5229 33.801 41.5122 34.4575 41.5122C36.3167 41.5122 37.8295 39.9996 37.8295 38.1402C37.8293 37.0185 37.2781 36.0234 36.4329 35.4101ZM33.999 32.4874C34.6272 32.4874 35.1383 32.9984 35.1383 33.6267C35.1383 34.2548 34.6272 34.766 33.999 34.766C33.8062 34.766 33.4436 34.767 33.0479 34.7684H32.3141V32.4875H33.999V32.4874ZM34.4573 39.6326C34.0674 39.6326 33.0704 39.6363 32.3141 39.6394V36.6508C32.5513 36.6499 32.8077 36.6489 33.0519 36.6481H34.4573C35.2802 36.6481 35.9496 37.3176 35.9496 38.1404C35.9496 38.9632 35.2802 39.6326 34.4573 39.6326Z" fill="#440A29"/>
<path d="M24.296 20.0073C25.4933 20.0073 26.5669 19.6147 27.4007 18.8721C27.5645 18.7262 27.7198 18.566 27.8624 18.3958C28.1958 17.998 28.1437 17.4052 27.7459 17.0718C27.3482 16.7384 26.7555 16.7903 26.4218 17.1883C26.3375 17.2888 26.2461 17.3832 26.1503 17.4685C25.6594 17.9058 25.0355 18.1275 24.2959 18.1275C22.323 18.1275 20.7179 16.5225 20.7179 14.5496C20.7179 12.5767 22.323 10.9715 24.2959 10.9715C25.0131 10.9715 25.7046 11.1827 26.2957 11.582C26.7256 11.8726 27.3101 11.7595 27.6006 11.3293C27.8912 10.8993 27.7782 10.315 27.348 10.0245C26.4449 9.41437 25.3895 9.0918 24.2959 9.0918C21.2866 9.0918 18.8382 11.5401 18.8382 14.5495C18.8383 17.559 21.2867 20.0073 24.296 20.0073Z" fill="#440A29"/>
<path d="M7.75185 36.3929C7.23274 36.3929 6.81203 35.9721 6.81203 35.4531V34.3196C6.81203 33.8005 7.23283 33.3798 7.75185 33.3798C8.27096 33.3798 8.69166 33.8006 8.69166 34.3196V35.4531C8.69166 35.9722 8.27096 36.3929 7.75185 36.3929Z" fill="white"/>
<path d="M7.75185 32.5768C7.23274 32.5768 6.81203 32.156 6.81203 31.637V31.2211C6.81203 30.702 7.23283 30.2812 7.75185 30.2812C8.27096 30.2812 8.69166 30.702 8.69166 31.2211V31.637C8.69166 32.1561 8.27096 32.5768 7.75185 32.5768Z" fill="white"/>
<path d="M47.1698 16.3974C47.2497 15.4376 46.5364 14.5947 45.5766 14.5148C44.6168 14.4349 43.7739 15.1482 43.694 16.108C43.6141 17.0679 44.3274 17.9107 45.2872 17.9906C46.247 18.0705 47.0899 17.3572 47.1698 16.3974Z" fill="#78EAC4"/>
<path d="M7.32903 7.1518C7.32903 7.55947 6.99856 7.88994 6.59089 7.88994C6.18322 7.88994 5.85266 7.55947 5.85266 7.1518C5.85266 6.74413 6.18313 6.41357 6.59089 6.41357C6.99856 6.41367 7.32903 6.74413 7.32903 7.1518Z" fill="#78EAC4"/>
<path d="M40.0806 0.928776L40.6728 2.59388C40.6981 2.66511 40.7483 2.72166 40.8117 2.75021L42.291 3.41665C42.5 3.51084 42.5 3.84379 42.291 3.93797L40.8117 4.60451C40.7483 4.63306 40.6981 4.68951 40.6728 4.76084L40.0806 6.42594C39.997 6.66112 39.7011 6.66112 39.6174 6.42594L39.0252 4.76084C38.9999 4.68951 38.9497 4.63306 38.8863 4.60451L37.407 3.93797C37.198 3.84379 37.198 3.51084 37.407 3.41665L38.8863 2.75021C38.9497 2.72166 38.9999 2.66521 39.0252 2.59388L39.6174 0.928776C39.7011 0.6935 39.997 0.6935 40.0806 0.928776Z" fill="#BDF4E3"/>
<path d="M4.32342 10.2695L5.12168 12.5142C5.15583 12.6103 5.22358 12.6865 5.30895 12.7249L7.30324 13.6234C7.58496 13.7504 7.58496 14.1993 7.30324 14.3262L5.30895 15.2247C5.22358 15.2632 5.15592 15.3394 5.12168 15.4355L4.32342 17.6801C4.2106 17.9973 3.81183 17.9973 3.69902 17.6801L2.90075 15.4355C2.8666 15.3394 2.79895 15.2632 2.71348 15.2247L0.719198 14.3262C0.437473 14.1993 0.437473 13.7504 0.719198 13.6234L2.71348 12.7249C2.79886 12.6865 2.86651 12.6103 2.90075 12.5142L3.69902 10.2695C3.81174 9.95247 4.2106 9.95247 4.32342 10.2695Z" fill="#BDF4E3"/>
</svg>
