<svg width="48" height="49" viewBox="0 0 48 49" fill="none" xmlns="http://www.w3.org/2000/svg">
<g clip-path="url(#clip0_150_1546)">
<path d="M7.60883 15.2933C7.60883 12.2157 9.52431 8.33728 14.5586 8.33728H36.1741C38.5351 8.33728 40.4491 10.2513 40.4491 12.6123V42.6669C40.4491 43.9777 39.3864 45.0404 38.0756 45.0404H37.879" fill="#8BB6EF"/>
<path d="M7.60883 15.2933C7.60883 12.2157 9.52431 8.33728 14.5586 8.33728H36.1741C38.5351 8.33728 40.4491 10.2513 40.4491 12.6123V42.6669C40.4491 43.9777 39.3864 45.0404 38.0756 45.0404H37.879" fill="#8388EF"/>
<path d="M34.8377 47.6881H11.7755C9.44941 47.6881 7.56378 45.8024 7.56378 43.4764V15.9063C7.56378 13.5802 9.44941 11.6946 11.7755 11.6946H34.8377C36.1233 11.6946 37.1653 12.7367 37.1653 14.0222V45.3604C37.1654 46.6459 36.1233 47.6881 34.8377 47.6881Z" fill="#8BB6EF"/>
<path d="M34.8377 11.6945H30.4764C31.5842 11.6945 32.4822 12.5925 32.4822 13.7003V41.4393C32.4822 42.5471 31.5842 43.4451 30.4764 43.4451H11.1931C9.1887 43.4451 7.56378 41.8202 7.56378 39.8158V43.4762C7.56378 45.8024 9.44941 47.688 11.7755 47.688H34.8377C36.1233 47.688 37.1653 46.6458 37.1653 45.3604V14.0222C37.1654 12.7366 36.1233 11.6945 34.8377 11.6945Z" fill="#8388EF"/>
<path d="M12.6749 11.6945H11.7755C9.44941 11.6945 7.56378 13.5801 7.56378 15.9062V43.4762C7.56378 45.8024 9.44941 47.688 11.7755 47.688H12.6749V11.6945Z" fill="#EF8BBD"/>
<path d="M32.3959 19.4451L30.3452 17.9547L28.2944 19.4451C27.7872 19.8137 27.076 19.4514 27.076 18.8244V11.3672C27.076 10.2857 27.9527 9.40906 29.0342 9.40906H33.1467C34.2281 9.40906 35.1049 10.2857 35.1049 11.3672H33.6144V18.8244C33.6143 19.4514 32.9031 19.8137 32.3959 19.4451Z" fill="#EF8BBD"/>
<path d="M30.9 43.1567H18.1363C17.4581 43.1567 16.9083 42.6069 16.9083 41.9287V37.6727C16.9083 36.9945 17.4581 36.4447 18.1363 36.4447H30.9C31.5782 36.4447 32.128 36.9945 32.128 37.6727V41.9287C32.128 42.6069 31.5782 43.1567 30.9 43.1567Z" fill="white"/>
<path d="M36.1734 7.39795H14.5578C9.16637 7.39795 6.69558 11.4473 6.66946 15.2326C6.64053 15.4533 6.62396 15.6779 6.62396 15.9063V43.4764C6.62396 46.3167 8.93468 48.6275 11.775 48.6275H34.8373C36.4269 48.6275 37.7542 47.4862 38.0446 45.98H38.0748C39.9016 45.98 41.3878 44.4938 41.3878 42.667V12.6123C41.3878 9.73712 39.0486 7.39795 36.1734 7.39795ZM33.6134 10.8035C33.302 10.8035 33.0497 11.0559 33.0497 11.3672V18.8245C33.0497 18.9331 32.9801 18.9848 32.9385 19.0059C32.897 19.0269 32.8141 19.0529 32.7263 18.9893L30.6756 17.4989C30.4779 17.3553 30.2105 17.3553 30.0129 17.4989L27.9621 18.9893C27.8743 19.0529 27.7915 19.027 27.7499 19.0059C27.7083 18.9848 27.6387 18.9331 27.6387 18.8245V11.3672C27.6387 10.5983 28.2643 9.97274 29.0332 9.97274H33.1457C33.7141 9.97274 34.2043 10.3146 34.4212 10.8035H33.6134ZM14.5578 9.27665H27.6245C27.1164 9.62011 26.74 10.1439 26.587 10.7552H11.775C11.195 10.7552 10.6379 10.8531 10.1172 11.0306C11.0462 10.0144 12.4626 9.27665 14.5578 9.27665ZM8.50266 43.4763V15.9062C8.50266 14.1019 9.97059 12.6339 11.775 12.6339H11.9412V46.7487H11.775C9.97059 46.7487 8.50266 45.2808 8.50266 43.4763ZM36.2255 45.3604C36.2255 46.1259 35.6027 46.7486 34.8373 46.7486H13.0684V12.6339H26.5114V18.8245C26.5114 19.3276 26.7899 19.782 27.2382 20.0104C27.4301 20.1082 27.6372 20.1564 27.8433 20.1564C28.1186 20.1564 28.3921 20.0703 28.6248 19.9011L30.3442 18.6515L32.0635 19.9011C32.4705 20.1969 33.0019 20.2389 33.45 20.0104C33.8983 19.782 34.1768 19.3276 34.1768 18.8245V12.6339H34.8371C35.6026 12.6339 36.2253 13.2567 36.2253 14.0222V45.3604H36.2255ZM39.509 42.6669C39.509 43.4478 38.8814 44.0838 38.1042 44.0997V14.0222C38.1042 12.4885 37.0414 11.1997 35.614 10.8503C35.4776 10.1983 35.0887 9.6378 34.5546 9.27665H36.1734C38.0127 9.27665 39.5091 10.773 39.5091 12.6123V42.6669H39.509Z" fill="#440A29"/>
<path d="M16.5536 32.0223C16.7807 32.0223 16.9948 31.884 17.0804 31.6591L17.5414 30.4486H20.6297L21.0859 31.6575C21.1959 31.9488 21.5209 32.0959 21.8122 31.9858C22.1034 31.8759 22.2504 31.5507 22.1405 31.2596L19.756 24.9412C19.754 24.936 19.752 24.9309 19.7499 24.9258C19.6401 24.6589 19.3829 24.4866 19.0944 24.4866C19.0942 24.4866 19.0939 24.4866 19.0937 24.4866C18.8049 24.4869 18.5477 24.6598 18.4383 24.927C18.4366 24.9313 18.4349 24.9355 18.4333 24.9398L16.0269 31.2579C15.9161 31.5487 16.0621 31.8744 16.3529 31.9853C16.4192 32.0104 16.487 32.0223 16.5536 32.0223ZM19.0927 26.3758L20.2043 29.3214H17.9707L19.0927 26.3758Z" fill="#440A29"/>
<path d="M32.4824 30.895H29.2473L32.8551 25.3579C32.968 25.1846 32.9769 24.9634 32.8784 24.7816C32.7799 24.5999 32.5897 24.4866 32.3829 24.4866H28.3388C28.0275 24.4866 27.7751 24.739 27.7751 25.0502C27.7751 25.3615 28.0275 25.6138 28.3388 25.6138H31.343L27.7352 31.1509C27.6223 31.3242 27.6133 31.5454 27.7118 31.7272C27.8103 31.9089 28.0005 32.0221 28.2073 32.0221H32.4824C32.7937 32.0221 33.046 31.7698 33.046 31.4585C33.0459 31.1473 32.7937 30.895 32.4824 30.895Z" fill="#440A29"/>
<path d="M22.9706 28.8181H26.8496C27.1608 28.8181 27.4132 28.5657 27.4132 28.2544C27.4132 27.9432 27.1608 27.6908 26.8496 27.6908H22.9706C22.6593 27.6908 22.4069 27.9432 22.4069 28.2544C22.4069 28.5657 22.6593 28.8181 22.9706 28.8181Z" fill="#440A29"/>
<path d="M30.8999 35.8811H18.1362C17.1483 35.8811 16.3445 36.6849 16.3445 37.6727V41.9287C16.3445 42.9166 17.1483 43.7203 18.1362 43.7203H30.8999C31.8878 43.7203 32.6915 42.9166 32.6915 41.9287V37.6727C32.6914 36.6849 31.8878 35.8811 30.8999 35.8811ZM31.5642 41.9288C31.5642 42.2952 31.2662 42.5933 30.8999 42.5933H18.1362C17.7699 42.5933 17.4718 42.2952 17.4718 41.9288V37.6728C17.4718 37.3064 17.7699 37.0084 18.1362 37.0084H30.8999C31.2662 37.0084 31.5642 37.3064 31.5642 37.6728V41.9288Z" fill="#440A29"/>
<path d="M28.7193 39.2372H20.3168C20.0056 39.2372 19.7532 39.4896 19.7532 39.8008C19.7532 40.1121 20.0056 40.3645 20.3168 40.3645H28.7193C29.0306 40.3645 29.283 40.1121 29.283 39.8008C29.283 39.4895 29.0306 39.2372 28.7193 39.2372Z" fill="#440A29"/>
<path d="M22.3647 16.3984C22.3577 16.3984 22.3508 16.3983 22.3439 16.3982C21.1419 16.3722 19.9535 16.3679 18.8118 16.3858C18.2956 16.3927 17.866 15.9799 17.8579 15.4612C17.8499 14.9424 18.2638 14.5153 18.7825 14.5073C19.9476 14.4893 21.1593 14.4934 22.3845 14.5199C22.9032 14.5312 23.3145 14.9608 23.3033 15.4794C23.2923 15.9911 22.8739 16.3984 22.3647 16.3984Z" fill="white"/>
<path d="M15.7211 16.3984H15.2332C14.7144 16.3984 14.2938 15.9778 14.2938 15.459C14.2938 14.9403 14.7144 14.5197 15.2332 14.5197H15.7211C16.2399 14.5197 16.6605 14.9403 16.6605 15.459C16.6605 15.9778 16.2399 16.3984 15.7211 16.3984Z" fill="white"/>
<path d="M38.7492 3.6216C38.7492 4.58384 37.9692 5.36381 37.007 5.36381C36.0447 5.36381 35.2648 4.58384 35.2648 3.6216C35.2648 2.65937 36.0447 1.87939 37.007 1.87939C37.9692 1.8793 38.7492 2.65937 38.7492 3.6216Z" fill="#8BB6EF"/>
<path d="M2.00235 11.2365C2.37925 11.0813 2.55892 10.6499 2.40366 10.2729C2.2484 9.89599 1.81701 9.71626 1.44011 9.8715C1.06322 10.0267 0.883552 10.4582 1.03881 10.8351C1.19407 11.212 1.62546 11.3918 2.00235 11.2365Z" fill="#8BB6EF"/>
<path d="M44.7256 5.59018L45.3175 7.25442C45.3428 7.32565 45.393 7.3821 45.4563 7.41065L46.9349 8.07679C47.1438 8.17087 47.1438 8.50376 46.9349 8.59784L45.4563 9.26398C45.3931 9.29253 45.3429 9.34898 45.3175 9.42022L44.7256 11.0844C44.642 11.3196 44.3463 11.3196 44.2627 11.0844L43.6708 9.42022C43.6454 9.34898 43.5952 9.29253 43.532 9.26398L42.0534 8.59784C41.8445 8.50376 41.8445 8.17087 42.0534 8.07679L43.532 7.41065C43.5952 7.3821 43.6454 7.32565 43.6708 7.25442L44.2627 5.59018C44.3463 5.35503 44.642 5.35503 44.7256 5.59018Z" fill="#B2E7F1"/>
<path d="M4.86835 0.935777L5.68165 3.17928C5.71648 3.27532 5.78538 3.35143 5.87243 3.38991L7.90409 4.28792C8.19111 4.41477 8.19111 4.86345 7.90409 4.99039L5.87243 5.88841C5.78547 5.92688 5.71648 6.00299 5.68165 6.09903L4.86835 8.34253C4.75349 8.6595 4.34712 8.6595 4.23226 8.34253L3.41896 6.09903C3.38414 6.00299 3.31524 5.92688 3.22818 5.88841L1.19652 4.99039C0.909509 4.86354 0.909509 4.41486 1.19652 4.28792L3.22818 3.38991C3.31515 3.35143 3.38414 3.27532 3.41896 3.17928L4.23226 0.935777C4.34712 0.618901 4.75349 0.618901 4.86835 0.935777Z" fill="#B2E7F1"/>
</g>
<defs>
<clipPath id="clip0_150_1546">
<rect width="47.9293" height="47.9293" fill="white" transform="translate(0.0712891 0.69812)"/>
</clipPath>
</defs>
</svg>
