<svg width="76" height="76" viewBox="0 0 76 76" fill="none" xmlns="http://www.w3.org/2000/svg">
<g filter="url(#filter0_d_302_377)">
<rect x="5.79175" y="0.0900879" width="70" height="70" rx="35" fill="url(#paint0_linear_302_377)" shape-rendering="crispEdges"/>
<g clip-path="url(#clip0_302_377)">
<g clip-path="url(#clip1_302_377)">
<path d="M61.8855 41.3408C61.8838 40.7819 61.6611 40.2463 61.2658 39.8511C60.8706 39.4559 60.3351 39.2331 59.7761 39.2314H46.5644C48.6345 38.1696 50.3721 36.5579 51.5864 34.5733C52.8007 32.5888 53.4448 30.308 53.448 27.9814C53.4442 27.2955 53.3831 26.6111 53.2652 25.9353L61.5128 21.5689C61.628 21.5068 61.7236 21.4138 61.7887 21.3003C61.8539 21.1868 61.8861 21.0574 61.8817 20.9266C61.8773 20.7958 61.8365 20.6688 61.7639 20.5599C61.6913 20.4511 61.5897 20.3646 61.4707 20.3103L41.08 11.1697C40.9896 11.128 40.8913 11.1064 40.7917 11.1064C40.6922 11.1064 40.5939 11.128 40.5035 11.1697L20.1128 20.3103C19.9938 20.3646 19.8922 20.4511 19.8196 20.5599C19.747 20.6688 19.7062 20.7958 19.7018 20.9266C19.6974 21.0574 19.7296 21.1868 19.7948 21.3003C19.8599 21.4138 19.9555 21.5068 20.0707 21.5689L22.5105 22.8627V25.9705C21.9083 26.126 21.3746 26.4767 20.9929 26.9678C20.6113 27.4589 20.4031 28.0626 20.4011 28.6846V30.7939C20.4011 30.9804 20.4752 31.1593 20.6071 31.2911C20.7389 31.423 20.9178 31.4971 21.1042 31.4971H25.323C25.5095 31.4971 25.6883 31.423 25.8202 31.2911C25.952 31.1593 26.0261 30.9804 26.0261 30.7939V28.6846C26.0241 28.0626 25.816 27.4589 25.4343 26.9678C25.0526 26.4767 24.519 26.126 23.9167 25.9705V23.608L28.3183 25.9353C28.2004 26.6111 28.1393 27.2955 28.1355 27.9814C28.1387 30.308 28.7828 32.5888 29.9971 34.5733C31.2114 36.5579 32.949 38.1696 35.0191 39.2314H26.7292C24.8644 39.2314 23.076 39.9722 21.7574 41.2908C20.4388 42.6095 19.698 44.3979 19.698 46.2627C19.698 48.1275 20.4388 49.9159 21.7574 51.2345C23.076 52.5531 24.8644 53.2939 26.7292 53.2939H59.7761C60.3356 53.2939 60.8721 53.0717 61.2677 52.6761C61.6633 52.2805 61.8855 51.744 61.8855 51.1846C61.8855 50.6251 61.6633 50.0886 61.2677 49.693C60.8721 49.2974 60.3356 49.0752 59.7761 49.0752V43.4502C60.3351 43.4485 60.8706 43.2257 61.2658 42.8305C61.6611 42.4353 61.8838 41.8997 61.8855 41.3408ZM40.7917 39.2314C38.8157 39.2293 36.8753 38.7054 35.1667 37.7127V31.7853L37.691 29.2611L38.9988 28.6072C39.1405 28.5355 39.2538 28.418 39.3202 28.2737C39.3866 28.1294 39.4021 27.967 39.3644 27.8127L38.6613 25.0002C38.6305 24.876 38.5664 24.7626 38.476 24.6722C38.3856 24.5817 38.2721 24.5177 38.148 24.4869L35.3355 23.7838C35.2248 23.7557 35.1087 23.7557 34.998 23.7838L32.3191 24.4517L30.2238 24.1564C30.8318 22.4852 31.827 20.9817 33.1277 19.7689L35.448 21.5127C35.4799 21.5388 35.5154 21.5601 35.5535 21.576L38.366 22.9822C38.4299 23.016 38.4987 23.0397 38.5699 23.0525L42.7886 23.7557C42.8258 23.7615 42.8635 23.7639 42.9011 23.7627C43.0171 23.7631 43.1314 23.7343 43.2333 23.679C43.3353 23.6238 43.4218 23.5437 43.4847 23.4463L44.7574 21.5408L46.6417 20.915C46.7444 20.8795 46.838 20.8219 46.916 20.7463L48.1605 19.5017C48.7729 20.0322 49.3247 20.6288 49.8058 21.2807L47.3871 23.2142C47.366 23.2283 47.3449 23.2494 47.3238 23.2635L45.3199 25.2744L41.9378 26.6244C41.8927 26.6421 41.8501 26.6657 41.8113 26.6947L39.7019 28.101C39.6208 28.1541 39.5515 28.2234 39.4983 28.3044C39.4451 28.3854 39.4091 28.4765 39.3925 28.5721L38.6894 32.7908C38.6654 32.9383 38.6893 33.0896 38.7576 33.2225C38.8259 33.3554 38.9351 33.4629 39.0691 33.5291L41.4949 34.7455V36.4189C41.4949 36.6054 41.569 36.7843 41.7008 36.9161C41.8327 37.048 42.0115 37.1221 42.198 37.1221H45.0105C45.1486 37.1224 45.2834 37.0807 45.3972 37.0025L47.2535 35.7721L48.5613 36.0955C46.4756 38.1081 43.6901 39.2324 40.7917 39.2314ZM34.2457 18.8549C36.0987 17.5139 38.3183 16.7734 40.6052 16.7332C42.8922 16.6929 45.1365 17.3549 47.0355 18.6299L46.0371 19.6353L44.0824 20.2822C43.9339 20.3317 43.8072 20.4311 43.7238 20.5635L42.5707 22.2932L38.9003 21.6814L36.2425 20.3525L34.2457 18.8549ZM49.63 34.9142L47.2886 34.3307C47.1944 34.3062 47.096 34.3023 47.0002 34.3193C46.9043 34.3363 46.8132 34.3737 46.7332 34.4291L44.7996 35.7158H42.9011V34.3096C42.9026 34.1793 42.8671 34.0513 42.7986 33.9405C42.7301 33.8297 42.6316 33.7407 42.5144 33.6838L40.166 32.5096L40.7355 29.0994L42.5285 27.9041L45.9738 26.526C46.0623 26.4896 46.1434 26.4371 46.2128 26.3713L48.2941 24.29L50.5792 22.4549C51.6805 24.3898 52.1785 26.6097 52.0094 28.8297C51.8403 31.0496 51.0117 33.1685 49.63 34.9142ZM24.6199 28.6846V30.0908H21.8074V28.6846C21.8074 28.3116 21.9555 27.9539 22.2193 27.6902C22.483 27.4265 22.8407 27.2783 23.2136 27.2783C23.5866 27.2783 23.9443 27.4265 24.208 27.6902C24.4717 27.9539 24.6199 28.3116 24.6199 28.6846ZM22.0042 20.9994L40.7917 12.583L59.5793 20.9994L52.9558 24.515C52.2038 21.8687 50.6093 19.5398 48.4141 17.8815C46.2189 16.2233 43.5429 15.3261 40.7917 15.3261C38.0406 15.3261 35.3646 16.2233 33.1694 17.8815C30.9742 19.5398 29.3797 21.8687 28.6277 24.515L22.0042 20.9994ZM33.9644 30.9978C33.8349 31.1319 33.7619 31.3107 33.7605 31.4971V36.7494C32.4447 35.698 31.3822 34.3639 30.652 32.8462C29.9217 31.3284 29.5422 29.6658 29.5417 27.9814C29.5422 27.1531 29.6365 26.3275 29.823 25.5205L32.2558 25.865C32.3472 25.858 32.4316 25.858 32.523 25.851L35.1667 25.19L37.4027 25.7455L37.8667 27.6017L36.9597 28.0588C36.9035 28.101 36.8402 28.1432 36.7769 28.1853L33.9644 30.9978ZM28.1355 42.0439C27.0166 42.0439 25.9436 42.4884 25.1524 43.2796C24.3612 44.0707 23.9167 45.1438 23.9167 46.2627C23.9167 47.3816 24.3612 48.4546 25.1524 49.2458C25.9436 50.037 27.0166 50.4814 28.1355 50.4814H59.7761C59.9626 50.4814 60.1414 50.5555 60.2733 50.6874C60.4052 50.8192 60.4792 50.9981 60.4792 51.1846C60.4792 51.371 60.4052 51.5499 60.2733 51.6817C60.1414 51.8136 59.9626 51.8877 59.7761 51.8877H26.7292C25.2374 51.8877 23.8067 51.2951 22.7518 50.2402C21.6969 49.1853 21.1042 47.7545 21.1042 46.2627C21.1042 44.7708 21.6969 43.3401 22.7518 42.2852C23.8067 41.2303 25.2374 40.6377 26.7292 40.6377H59.7761C59.9626 40.6377 60.1414 40.7118 60.2733 40.8436C60.4052 40.9755 60.4792 41.1543 60.4792 41.3408C60.4792 41.5273 60.4052 41.7061 60.2733 41.838C60.1414 41.9699 59.9626 42.0439 59.7761 42.0439H28.1355ZM58.3699 43.4502V49.0752H28.1355C27.3896 49.0752 26.6742 48.7789 26.1468 48.2514C25.6193 47.724 25.323 47.0086 25.323 46.2627C25.323 45.5168 25.6193 44.8014 26.1468 44.2739C26.6742 43.7465 27.3896 43.4502 28.1355 43.4502H58.3699Z" fill="white"/>
<path d="M28.1355 44.8564V46.2627H49.2292V48.3721C49.2283 48.4995 49.2627 48.6248 49.3284 48.7339C49.3942 48.8431 49.4888 48.932 49.6019 48.9908C49.7131 49.0517 49.8389 49.0806 49.9655 49.0744C50.092 49.0682 50.2144 49.0271 50.3191 48.9557L52.0417 47.8096L53.7644 48.9557C53.8702 49.0253 53.9927 49.0651 54.1192 49.0708C54.2457 49.0766 54.3714 49.0481 54.4831 48.9883C54.5947 48.9285 54.6881 48.8397 54.7534 48.7313C54.8188 48.6228 54.8536 48.4987 54.8542 48.3721V46.2627H56.9636V44.8564H28.1355ZM53.448 47.0572L52.4285 46.3822C52.3145 46.3044 52.1797 46.2627 52.0417 46.2627C51.9038 46.2627 51.769 46.3044 51.655 46.3822L50.6355 47.0572V46.2627H53.448V47.0572Z" fill="white"/>
</g>
</g>
</g>
<defs>
<filter id="filter0_d_302_377" x="0.791748" y="0.0900879" width="75" height="75" filterUnits="userSpaceOnUse" color-interpolation-filters="sRGB">
<feFlood flood-opacity="0" result="BackgroundImageFix"/>
<feColorMatrix in="SourceAlpha" type="matrix" values="0 0 0 0 0 0 0 0 0 0 0 0 0 0 0 0 0 0 127 0" result="hardAlpha"/>
<feOffset dx="-5" dy="5"/>
<feComposite in2="hardAlpha" operator="out"/>
<feColorMatrix type="matrix" values="0 0 0 0 0.0666667 0 0 0 0 0.431373 0 0 0 0 0.388235 0 0 0 0.09 0"/>
<feBlend mode="normal" in2="BackgroundImageFix" result="effect1_dropShadow_302_377"/>
<feBlend mode="normal" in="SourceGraphic" in2="effect1_dropShadow_302_377" result="shape"/>
</filter>
<linearGradient id="paint0_linear_302_377" x1="5.79175" y1="35.0901" x2="75.7917" y2="35.0901" gradientUnits="userSpaceOnUse">
<stop stop-color="#2E98FC"/>
<stop offset="1" stop-color="#E01CF4"/>
</linearGradient>
<clipPath id="clip0_302_377">
<rect width="45" height="45" fill="white" transform="translate(18.2917 9.7002)"/>
</clipPath>
<clipPath id="clip1_302_377">
<rect width="45" height="45" fill="white" transform="translate(18.2917 9.7002)"/>
</clipPath>
</defs>
</svg>
