<svg width="79" height="74" viewBox="0 0 79 74" fill="none" xmlns="http://www.w3.org/2000/svg">
<path d="M27.5671 12.0435L21.3121 10.1268C19.6459 9.61566 18.3348 8.38896 17.7884 6.83L15.7399 0.97754C15.2756 -0.325847 13.3089 -0.325847 12.8719 0.97754L10.8233 6.83C10.277 8.38896 8.96595 9.61566 7.29977 10.1268L1.04478 12.0435C-0.348259 12.478 -0.348259 14.3181 1.04478 14.7269L7.29977 16.6437C8.96595 17.1549 10.277 18.3816 10.8233 19.9406L12.8719 25.7929C13.3363 27.0963 15.3029 27.0963 15.7399 25.7929L17.7884 19.9406C18.3348 18.3816 19.6459 17.1549 21.3121 16.6437L27.5671 14.7269C28.9601 14.2925 28.9601 12.4525 27.5671 12.0435Z" fill="#ACACAC"/>
<path d="M76.8268 36.788L63.8179 32.8016C60.3526 31.7386 57.6259 29.1873 56.4898 25.9451L52.2292 13.7733C51.2635 11.0626 47.1734 11.0626 46.2644 13.7733L42.0039 25.9451C40.8678 29.1873 38.141 31.7386 34.6757 32.8016L21.6668 36.788C18.7696 37.6916 18.7696 41.5185 21.6668 42.3689L34.6757 46.3552C38.141 47.4183 40.8678 49.9695 42.0039 53.2119L46.2644 65.3836C47.2301 68.0944 51.3202 68.0944 52.2292 65.3836L56.4898 53.2119C57.6259 49.9695 60.3526 47.4183 63.8179 46.3552L76.8268 42.3689C79.7241 41.4652 79.7241 37.6383 76.8268 36.788Z" fill="#ACACAC"/>
<path d="M27.5671 58.8883L21.3121 56.9715C19.6459 56.4604 18.3348 55.2337 17.7884 53.6748L15.7399 47.8223C15.2756 46.5189 13.3089 46.5189 12.8719 47.8223L10.8233 53.6748C10.277 55.2337 8.96595 56.4604 7.29977 56.9715L1.04478 58.8883C-0.348259 59.3227 -0.348259 61.1629 1.04478 61.5717L7.29977 63.4884C8.96595 63.9996 10.277 65.2264 10.8233 66.7854L12.8719 72.6377C13.3363 73.9411 15.3029 73.9411 15.7399 72.6377L17.7884 66.7854C18.3348 65.2264 19.6459 63.9996 21.3121 63.4884L27.5671 61.5717C28.9601 61.1373 28.9601 59.2973 27.5671 58.8883Z" fill="#ACACAC"/>
</svg>
